<?xml version="1.0" standalone="no"?>
<!DOCTYPE svg PUBLIC "-//W3C//DTD SVG 20010904//EN"
 "http://www.w3.org/TR/2001/REC-SVG-20010904/DTD/svg10.dtd">
<svg version="1.0" xmlns="http://www.w3.org/2000/svg"
 width="260.000000pt" height="260.000000pt" viewBox="0 0 260.000000 260.000000"
 preserveAspectRatio="xMidYMid meet">
<metadata>
Created by potrace 1.14, written by Peter Selinger 2001-2017
</metadata>
<g transform="translate(0.000000,260.000000) scale(0.100000,-0.100000)"
fill="#000000" stroke="none">
<path d="M0 2200 c0 -378 1 -400 18 -409 13 -7 23 -6 31 2 10 9 11 8 6 -5 -4
-10 -11 -18 -16 -18 -5 0 -9 -7 -9 -16 0 -11 7 -8 24 11 24 25 24 26 31 6 3
-12 14 -21 23 -20 12 0 13 2 4 6 -10 4 -7 9 9 17 13 6 26 22 30 36 l7 25 1
-24 c1 -18 5 -22 19 -16 9 4 25 10 34 12 10 3 16 8 14 12 -2 3 13 5 35 3 28
-3 39 0 39 9 0 11 3 11 10 -1 7 -12 10 -12 10 -1 0 7 6 11 15 8 8 -4 17 -2 20
2 2 5 15 11 27 14 20 5 20 3 -7 -19 l-30 -25 41 21 c41 20 80 18 67 -4 -7 -11
37 22 48 37 3 5 9 2 12 -7 5 -12 0 -16 -15 -16 -19 0 -18 -2 8 -28 30 -29 46
-34 24 -7 -10 13 -9 15 9 15 11 0 21 4 21 10 0 5 -6 7 -13 4 -7 -2 -17 8 -23
24 -10 25 -9 28 12 30 17 1 21 -3 17 -18 -3 -12 1 -22 11 -26 9 -3 13 -10 10
-15 -3 -5 -1 -9 4 -9 6 0 13 7 16 16 9 23 8 26 -6 18 -7 -4 -4 2 6 14 20 24
36 31 17 9 -12 -16 -5 -28 13 -21 7 3 18 -7 24 -21 12 -25 12 -26 36 -8 13 10
21 23 19 30 -3 6 5 17 17 23 20 11 21 10 15 -10 -5 -15 -4 -20 4 -16 6 4 11 2
11 -5 0 -10 3 -10 12 -1 7 7 21 12 31 12 14 0 17 5 12 18 -5 14 -4 15 6 5 17
-17 46 -17 52 0 3 7 6 5 6 -5 1 -12 8 -16 22 -13 22 4 22 4 -1 -20 -13 -14
-20 -25 -16 -25 11 0 66 47 61 52 -2 2 5 9 15 16 11 7 20 8 20 3 0 -6 9 -8 20
-6 11 2 19 -1 17 -8 -1 -7 4 -11 11 -9 8 1 11 -2 7 -8 -5 -8 -11 -8 -21 0 -7
7 -19 10 -26 7 -8 -3 -6 -6 5 -6 11 -1 15 -6 11 -13 -5 -7 -3 -8 6 -3 10 6 12
4 7 -8 -9 -24 -3 -21 31 13 26 26 27 29 10 27 -12 -1 -22 5 -23 14 -2 13 2 14
30 5 32 -10 37 -19 22 -43 -5 -7 -4 -13 2 -13 5 0 13 5 16 10 4 7 12 7 25 0
33 -17 36 -11 5 10 -16 11 -26 20 -21 20 5 0 4 6 -2 13 -8 9 -6 16 7 24 16 10
18 9 14 -7 -3 -12 3 -22 16 -29 14 -8 21 -8 21 -1 0 5 -7 10 -15 10 -8 0 -15
4 -15 9 0 17 28 19 49 5 20 -14 22 -13 31 10 10 28 47 36 56 12 3 -8 13 -12
24 -9 15 4 18 1 13 -16 -6 -22 -35 -44 -47 -36 -3 3 -2 0 3 -6 5 -7 15 -8 23
-3 13 9 18 10 39 13 5 0 7 6 4 11 -3 6 0 10 7 10 9 0 9 3 -2 10 -12 8 -11 10
5 8 42 -3 57 2 51 17 -3 9 0 15 10 15 10 0 14 -6 10 -15 -7 -20 18 -19 49 1
14 9 25 13 25 10 0 -4 9 -2 19 4 21 11 40 -3 20 -16 -8 -4 -7 -9 2 -15 10 -6
8 -8 -6 -7 -11 0 -27 -1 -35 -3 -8 -2 -14 2 -12 9 2 10 -2 10 -17 2 -18 -9
-18 -13 -6 -36 7 -15 11 -34 8 -43 -3 -9 5 -2 17 14 12 17 20 22 17 13 -5 -13
3 -20 31 -28 24 -6 38 -6 40 0 2 6 10 6 22 0 13 -7 20 -6 22 1 3 8 9 6 20 -4
8 -9 18 -13 22 -10 10 10 7 43 -5 43 -5 0 -7 -6 -3 -12 4 -7 -2 -4 -14 6 -23
20 -28 36 -12 36 5 0 9 -3 7 -8 -3 -11 9 -12 45 -5 27 5 29 7 13 13 -11 4 -26
3 -33 -3 -9 -7 -11 -6 -6 6 4 12 1 14 -16 10 -20 -5 -21 -4 -11 15 7 14 17 18
31 15 11 -3 20 -8 20 -12 0 -9 63 -7 78 2 7 5 26 5 43 2 22 -5 29 -4 25 4 -8
12 12 56 21 47 3 -3 0 -13 -8 -22 -13 -16 -11 -17 26 -11 43 7 85 0 85 -14 0
-5 -7 -6 -15 -3 -17 7 -19 -4 -5 -26 7 -12 10 -12 10 -1 0 7 6 11 14 8 7 -3
28 3 45 14 18 11 29 14 25 7 -14 -22 -14 -42 -1 -29 15 15 37 14 37 -2 0 -8 7
-14 15 -14 8 0 15 4 15 8 0 5 8 5 18 2 14 -6 15 -4 5 8 -10 12 -6 14 20 13 18
-1 37 -2 42 -4 6 -1 13 -2 18 -1 4 0 7 -5 7 -11 0 -10 3 -9 9 1 6 9 11 10 15
2 4 -6 2 -11 -4 -11 -7 0 -9 -7 -6 -16 3 -8 2 -13 -3 -10 -5 3 -15 -2 -22 -12
-7 -9 -9 -14 -5 -10 5 4 24 -1 42 -12 18 -12 35 -17 38 -11 3 5 0 12 -6 14 -7
3 -2 6 12 6 20 1 22 3 10 11 -13 9 -13 10 0 10 13 0 13 1 0 10 -13 8 -13 10 2
10 20 0 42 35 32 52 -4 7 -3 8 4 4 7 -4 12 -14 12 -22 0 -9 5 -12 12 -8 7 4 8
3 4 -5 -4 -6 -11 -9 -16 -6 -4 2 -14 -10 -21 -28 -7 -17 -18 -35 -23 -39 -7
-5 -7 -8 2 -8 13 0 29 11 61 42 16 16 19 16 37 2 18 -14 18 -15 -3 -4 -22 10
-29 4 -24 -23 1 -5 -4 -5 -11 -1 -9 5 -9 2 1 -7 10 -11 15 -11 18 -1 3 6 9 12
14 12 6 0 7 -4 4 -10 -9 -14 7 -12 27 4 14 10 15 15 5 26 -9 10 -9 11 3 8 8
-3 24 2 34 11 18 15 19 15 14 0 -5 -14 1 -16 43 -14 44 2 49 0 44 -16 -5 -14
-1 -19 14 -19 11 0 24 -8 30 -17 5 -10 13 -14 17 -10 5 5 2 12 -5 16 -9 6 -10
11 -2 15 8 5 11 120 11 387 l0 379 -1300 0 -1300 0 0 -400z m2410 -164 c0 -3
-4 -8 -10 -11 -5 -3 -10 -1 -10 4 0 6 5 11 10 11 6 0 10 -2 10 -4z m-840 -27
c0 -6 -4 -7 -10 -4 -5 3 -10 11 -10 16 0 6 5 7 10 4 6 -3 10 -11 10 -16z m-63
-7 c-13 -3 -16 -10 -12 -25 5 -20 5 -20 -5 -4 -16 25 -6 49 17 40 17 -7 17 -8
0 -11z m67 -37 c11 -8 16 -15 10 -15 -5 0 -18 7 -28 15 -11 8 -16 15 -10 15 5
0 18 -7 28 -15z m-679 -5 c3 -5 1 -10 -4 -10 -6 0 -11 5 -11 10 0 6 2 10 4 10
3 0 8 -4 11 -10z m-85 -4 c0 -2 -8 -10 -17 -17 -16 -13 -17 -12 -4 4 13 16 21
21 21 13z m390 -44 c0 -13 -3 -12 -19 4 -10 10 -16 23 -14 27 7 12 33 -13 33
-31z m-570 13 c0 -7 -30 -13 -34 -7 -3 4 4 9 15 9 10 1 19 0 19 -2z m220 -8
c0 -9 -12 -14 -35 -14 -19 0 -32 4 -30 8 3 4 14 5 24 2 10 -3 22 0 25 6 10 15
16 14 16 -2z m35 -17 c3 -6 -1 -7 -9 -4 -18 7 -21 14 -7 14 6 0 13 -4 16 -10z
m699 -2 c-3 -4 -11 -5 -19 -1 -21 7 -19 12 4 10 11 0 18 -5 15 -9z m-1159 -8
c-3 -5 2 -10 12 -10 13 0 15 -2 5 -9 -7 -4 -25 -6 -40 -2 -19 3 -22 6 -9 9 9
2 17 8 17 13 0 5 5 9 11 9 5 0 7 -4 4 -10z m1975 0 c0 -5 -5 -10 -11 -10 -5 0
-7 5 -4 10 3 6 8 10 11 10 2 0 4 -4 4 -10z m-2044 -22 c4 -7 4 -10 -1 -6 -4 4
-14 3 -22 -4 -11 -8 -12 -7 -7 6 7 19 20 21 30 4z m-256 -2 c0 -2 -7 -7 -16
-10 -8 -3 -12 -2 -9 4 6 10 25 14 25 6z m175 -5 c3 -5 2 -12 -3 -15 -5 -3 -9
1 -9 9 0 17 3 19 12 6z m-71 -19 c3 -5 -1 -9 -9 -9 -8 0 -12 4 -9 9 3 4 7 8 9
8 2 0 6 -4 9 -8z m478 -4 c-9 -9 -15 -9 -24 0 -9 9 -7 12 12 12 19 0 21 -3 12
-12z m-639 -25 c-7 -2 -19 -2 -25 0 -7 3 -2 5 12 5 14 0 19 -2 13 -5z"/>
<path d="M1410 1892 c0 -12 19 -26 26 -19 2 2 -2 10 -11 17 -9 8 -15 8 -15 2z"/>
<path d="M1705 1890 c3 -5 11 -10 16 -10 6 0 7 5 4 10 -3 6 -11 10 -16 10 -6
0 -7 -4 -4 -10z"/>
<path d="M1760 1886 c11 -15 12 -20 3 -23 -7 -3 -13 -9 -13 -14 0 -4 7 -6 15
-3 20 8 19 28 -2 45 -17 13 -17 13 -3 -5z"/>
<path d="M2015 1890 c-3 -5 -1 -10 4 -10 6 0 11 5 11 10 0 6 -2 10 -4 10 -3 0
-8 -4 -11 -10z"/>
<path d="M1370 1880 c0 -5 -6 -8 -12 -6 -7 1 -10 1 -6 -1 5 -3 4 -12 -1 -22
-7 -13 -4 -20 11 -30 11 -7 17 -8 14 -3 -3 5 2 16 11 23 15 12 16 12 10 -3 -3
-10 -2 -18 4 -18 6 0 7 -4 4 -10 -10 -16 11 -12 25 5 10 12 9 15 -6 15 -18 1
-18 1 1 16 12 10 14 14 5 12 -8 -3 -21 4 -28 16 -9 14 -12 16 -8 4 3 -12 0
-18 -9 -18 -9 0 -12 6 -9 15 4 8 3 15 0 15 -3 0 -6 -4 -6 -10z"/>
<path d="M2136 1882 c-2 -4 -1 -14 3 -21 6 -10 10 -9 15 4 3 9 10 13 16 10 5
-3 10 -1 10 4 0 13 -36 15 -44 3z"/>
<path d="M1974 1871 c4 -6 1 -11 -6 -11 -7 0 -26 -12 -43 -26 -26 -21 -27 -23
-5 -12 14 7 27 16 30 20 3 4 16 6 29 3 16 -3 21 0 19 12 -2 9 -9 18 -17 21 -8
3 -11 0 -7 -7z"/>
<path d="M2065 1870 c-4 -6 -17 -9 -29 -6 -17 4 -23 1 -23 -11 0 -8 8 -18 18
-20 9 -3 19 -13 22 -24 6 -21 -9 -27 -16 -6 -3 9 -9 8 -22 -4 -15 -15 -15 -17
0 -23 11 -4 14 -2 9 6 -5 8 -2 9 10 5 18 -7 53 9 73 33 21 25 14 35 -7 10 -11
-13 -20 -18 -20 -12 0 7 10 22 22 34 13 13 16 19 6 16 -9 -4 -20 -2 -26 4 -6
6 -12 6 -17 -2z"/>
<path d="M940 1850 c-8 -5 -10 -10 -5 -11 6 0 1 -4 -10 -9 -17 -7 -17 -9 -3
-9 10 -1 22 8 28 19 12 23 11 24 -10 10z"/>
<path d="M1876 1845 c4 -8 11 -15 16 -15 6 0 5 6 -2 15 -7 8 -14 15 -16 15 -2
0 -1 -7 2 -15z"/>
<path d="M2452 1851 c-11 -6 -9 -9 7 -14 12 -3 22 1 25 9 6 16 -12 18 -32 5z"/>
<path d="M776 1842 c-8 -13 46 -23 59 -11 5 6 3 9 -7 9 -9 0 -23 3 -31 6 -8 3
-18 1 -21 -4z"/>
<path d="M1296 1842 c-3 -5 1 -9 9 -9 8 0 12 4 9 9 -3 4 -7 8 -9 8 -2 0 -6 -4
-9 -8z"/>
<path d="M416 1831 c-4 -5 0 -12 6 -14 12 -5 -17 -11 -35 -8 -5 1 -6 -3 -2 -8
8 -15 48 3 51 22 2 18 -11 23 -20 8z"/>
<path d="M1662 1828 c5 -15 28 -18 29 -3 0 6 -7 12 -17 13 -10 3 -15 -1 -12
-10z"/>
<path d="M1966 1815 c-9 -26 -7 -32 5 -12 6 10 9 21 6 23 -2 3 -7 -2 -11 -11z"/>
<path d="M2165 1816 c-5 -7 -15 -21 -22 -32 -6 -10 -17 -18 -25 -16 -7 1 -4
-5 6 -13 21 -16 51 -21 42 -7 -2 4 -1 14 3 21 6 10 12 9 25 -4 9 -9 16 -13 16
-8 0 4 5 1 10 -7 6 -10 10 -11 10 -3 0 7 -9 18 -19 25 -10 6 -17 18 -14 25 4
10 12 7 31 -12 13 -14 31 -25 38 -25 18 0 27 17 12 23 -7 2 1 4 17 4 17 1 46
6 65 12 l35 10 -35 -3 c-23 -2 -39 2 -48 13 -11 13 -13 13 -9 1 3 -12 -5 -15
-38 -15 -23 0 -50 7 -60 15 -11 8 -16 10 -12 3 4 -6 0 -19 -9 -28 -20 -20 -32
-11 -14 10 7 9 11 17 9 19 -2 2 -8 -1 -14 -8z"/>
<path d="M630 1805 c8 -10 9 -15 2 -15 -6 0 -9 -7 -5 -16 6 -16 7 -16 18 0 14
18 30 22 19 4 -4 -6 -3 -8 4 -4 5 3 12 2 14 -4 2 -6 8 -2 15 9 10 16 9 19 -5
16 -9 -1 -21 1 -27 5 -5 4 -19 10 -29 14 -16 5 -17 4 -6 -9z"/>
<path d="M1485 1810 c3 -5 8 -10 11 -10 2 0 4 5 4 10 0 6 -5 10 -11 10 -5 0
-7 -4 -4 -10z"/>
<path d="M776 1801 c-4 -6 -2 -11 5 -11 8 0 8 -4 -1 -15 -7 -9 -10 -18 -6 -22
3 -3 6 -1 6 5 0 7 6 12 14 12 7 0 19 7 26 15 11 13 10 14 -5 9 -9 -4 -20 -2
-25 6 -5 8 -9 9 -14 1z"/>
<path d="M860 1800 c0 -5 5 -10 11 -10 5 0 7 5 4 10 -3 6 -8 10 -11 10 -2 0
-4 -4 -4 -10z"/>
<path d="M1540 1799 c0 -5 5 -7 10 -4 6 3 10 8 10 11 0 2 -4 4 -10 4 -5 0 -10
-5 -10 -11z"/>
<path d="M2110 1806 c0 -2 7 -7 16 -10 8 -3 12 -2 9 4 -6 10 -25 14 -25 6z"/>
<path d="M226 1779 c15 -16 58 -23 48 -8 -2 4 1 9 8 11 9 3 9 6 0 12 -7 4 -12
2 -12 -4 0 -6 -5 -8 -12 -4 -7 5 -21 9 -30 9 -17 2 -17 0 -2 -16z"/>
<path d="M345 1790 c-3 -5 -2 -10 4 -10 5 0 13 5 16 10 3 6 2 10 -4 10 -5 0
-13 -4 -16 -10z"/>
<path d="M575 1789 c-8 -11 6 -40 16 -33 5 3 9 0 9 -6 0 -6 5 -8 10 -5 6 3 10
11 10 16 0 6 -5 7 -11 3 -7 -4 -9 0 -5 13 4 14 2 20 -9 20 -9 0 -18 -4 -20 -8z"/>
<path d="M728 1793 c6 -2 18 -2 25 0 6 3 1 5 -13 5 -14 0 -19 -2 -12 -5z"/>
<path d="M916 1783 c-6 -14 -5 -15 5 -6 7 7 10 15 7 18 -3 3 -9 -2 -12 -12z"/>
<path d="M1337 1786 c-3 -8 -2 -18 3 -21 13 -8 20 9 11 24 -6 10 -10 9 -14 -3z"/>
<path d="M2545 1789 c-4 -6 -4 -13 -1 -16 3 -4 6 -1 6 6 0 7 5 9 12 5 7 -4 8
-3 4 4 -9 15 -13 15 -21 1z"/>
<path d="M302 1765 c-11 -24 -10 -25 8 -15 11 6 17 16 14 25 -8 20 -9 19 -22
-10z"/>
<path d="M850 1773 c0 -5 -10 -15 -22 -21 -13 -6 -18 -11 -12 -11 16 -1 50 27
41 35 -4 4 -7 3 -7 -3z"/>
<path d="M165 1761 c-10 -17 12 -21 25 -6 10 12 10 15 -3 15 -9 0 -18 -4 -22
-9z"/>
<path d="M700 1761 c0 -4 12 -7 26 -5 38 4 42 14 6 14 -18 0 -32 -4 -32 -9z"/>
<path d="M1620 1766 c0 -2 7 -7 16 -10 8 -3 12 -2 9 4 -6 10 -25 14 -25 6z"/>
<path d="M1941 1765 c3 -2 25 -7 49 -10 32 -3 40 -2 30 5 -15 9 -88 15 -79 5z"/>
<path d="M2290 1759 c0 -5 5 -7 10 -4 6 3 10 8 10 11 0 2 -4 4 -10 4 -5 0 -10
-5 -10 -11z"/>
<path d="M135 1750 c-3 -5 -1 -10 4 -10 6 0 11 5 11 10 0 6 -2 10 -4 10 -3 0
-8 -4 -11 -10z"/>
<path d="M542 1753 c11 -3 15 -11 12 -21 -5 -14 -4 -14 4 -2 13 18 6 30 -16
29 -16 -1 -16 -2 0 -6z"/>
<path d="M1362 1740 c0 -14 2 -19 5 -12 2 6 2 18 0 25 -3 6 -5 1 -5 -13z"/>
<path d="M2070 1750 c20 -13 33 -13 25 0 -3 6 -14 10 -23 10 -15 0 -15 -2 -2
-10z"/>
<path d="M2590 1748 c0 -9 -6 -19 -12 -21 -10 -4 -10 -6 0 -6 14 -1 28 26 18
36 -3 4 -6 -1 -6 -9z"/>
<path d="M657 1735 c-4 -8 -3 -16 1 -19 4 -3 9 4 9 15 2 23 -3 25 -10 4z"/>
<path d="M2254 1743 c10 -11 37 -12 30 -2 -3 5 -12 9 -21 9 -9 0 -13 -3 -9 -7z"/>
<path d="M690 1726 c-10 -13 -7 -13 20 -3 28 11 33 10 46 -7 8 -11 14 -15 14
-10 0 32 -58 46 -80 20z"/>
<path d="M2023 1723 c0 -9 4 -10 14 -2 7 6 13 12 13 14 0 1 -6 2 -13 2 -8 0
-14 -6 -14 -14z"/>
<path d="M2130 1730 c0 -5 5 -10 11 -10 5 0 7 5 4 10 -3 6 -8 10 -11 10 -2 0
-4 -4 -4 -10z"/>
<path d="M2049 1714 c-10 -13 -10 -17 2 -24 9 -7 15 -5 17 5 2 8 8 15 13 15 6
0 7 5 4 10 -9 14 -21 12 -36 -6z"/>
<path d="M605 1710 c-3 -5 1 -10 10 -10 9 0 13 5 10 10 -3 6 -8 10 -10 10 -2
0 -7 -4 -10 -10z"/>
<path d="M2167 1709 c-10 -6 -25 -8 -32 -5 -8 3 -17 1 -20 -5 -4 -5 -10 -7
-15 -4 -5 3 -11 1 -15 -5 -3 -5 2 -10 12 -11 10 0 29 -2 43 -5 19 -3 21 -2 10
6 -8 5 -12 10 -8 10 3 0 14 3 24 7 12 4 15 3 10 -5 -11 -18 19 -15 34 3 7 9
19 14 26 11 7 -3 16 -1 19 4 8 13 -65 12 -88 -1z"/>
<path d="M790 1700 c-8 -5 -12 -11 -10 -14 3 -2 14 2 24 10 22 15 10 19 -14 4z"/>
<path d="M720 1690 c0 -5 4 -10 9 -10 6 0 13 5 16 10 3 6 -1 10 -9 10 -9 0
-16 -4 -16 -10z"/>
<path d="M106 1677 c3 -10 9 -15 12 -12 3 3 0 11 -7 18 -10 9 -11 8 -5 -6z"/>
<path d="M775 1660 c3 -5 8 -10 11 -10 2 0 4 5 4 10 0 6 -5 10 -11 10 -5 0 -7
-4 -4 -10z"/>
<path d="M970 1590 c0 -5 5 -10 11 -10 5 0 7 5 4 10 -3 6 -8 10 -11 10 -2 0
-4 -4 -4 -10z"/>
<path d="M7 1033 c-4 -3 -7 -237 -7 -520 l0 -513 1300 0 1300 0 0 424 0 425
-22 3 c-30 4 -105 -32 -117 -57 -5 -11 -10 -14 -10 -7 -1 6 -7 12 -15 12 -8 0
-16 5 -18 11 -2 6 -21 12 -42 14 -24 1 -33 -1 -24 -7 8 -5 -5 -6 -32 -2 -25 4
-61 7 -80 8 -19 1 -41 5 -47 9 -8 5 -13 4 -13 -3 0 -6 -4 -8 -10 -5 -5 3 -10
1 -10 -4 0 -12 -69 -9 -90 4 -9 5 -11 4 -6 -3 5 -8 2 -10 -8 -6 -9 3 -14 10
-11 14 3 4 -2 10 -10 14 -8 3 -17 1 -20 -4 -9 -15 -34 0 -29 18 3 9 -2 6 -10
-8 -8 -14 -15 -21 -16 -16 0 5 -7 3 -15 -4 -20 -17 -19 -3 2 18 16 16 15 17
-13 23 -16 3 -49 -1 -74 -8 -25 -7 -59 -13 -76 -13 -17 0 -37 -7 -44 -15 -7
-8 -19 -13 -29 -11 -41 8 -71 19 -71 26 0 4 -7 11 -16 14 -9 4 -13 2 -8 -5 3
-6 -4 -4 -17 5 -25 16 -69 12 -69 -6 0 -7 -5 -6 -14 1 -10 8 -19 6 -37 -11
-14 -13 -40 -24 -59 -26 -131 -10 -205 -10 -222 -1 -15 8 -19 8 -14 0 4 -6 1
-11 -6 -11 -15 1 -87 39 -74 40 5 0 -2 9 -15 21 -13 11 -23 27 -21 35 2 8 -2
14 -8 14 -6 0 -8 -4 -5 -10 3 -5 2 -10 -4 -10 -6 0 -19 -9 -29 -20 -10 -11
-29 -20 -43 -19 -13 0 -35 -3 -48 -7 -16 -5 -22 -4 -17 4 6 10 -10 19 -55 27
-31 6 -35 13 -20 38 13 20 13 21 -2 8 -10 -7 -17 -24 -17 -36 0 -26 -13 -34
-46 -27 -16 3 -21 9 -17 21 4 13 3 13 -5 2 -13 -18 -42 -23 -42 -8 0 8 -3 8
-9 -1 -12 -20 -105 -12 -109 10 -2 9 5 18 15 21 11 3 8 5 -10 6 -16 0 -26 5
-22 11 9 15 -4 12 -21 -5 -14 -13 -13 -15 7 -15 17 0 19 -3 10 -13 -6 -8 -8
-16 -5 -19 2 -3 -7 -5 -21 -5 -30 0 -45 24 -24 38 10 6 4 9 -20 9 -20 0 -39 7
-47 18 -12 15 -13 15 -14 0 0 -12 -8 -15 -31 -14 -16 1 -32 -1 -35 -6 -3 -4
22 -8 55 -8 51 0 61 -3 61 -17 0 -27 -106 -32 -113 -6 -4 17 -5 17 -6 1 0 -10
-5 -18 -11 -18 -5 0 -10 8 -11 18 0 14 -2 14 -7 2 -10 -21 -62 -26 -62 -6 0 9
-7 16 -15 16 -8 0 -15 -5 -15 -11 0 -5 5 -7 10 -4 6 3 10 2 10 -3 0 -5 -11 -9
-25 -9 -14 0 -25 3 -25 8 0 5 -5 9 -11 9 -5 0 -7 -4 -4 -10 4 -6 -5 -10 -19
-10 -19 0 -26 5 -26 20 0 18 7 20 69 20 58 0 70 -3 74 -17 4 -17 5 -17 6 0 0
10 5 16 9 13 4 -2 14 -1 22 5 11 6 7 9 -15 10 -16 1 -35 1 -42 0 -7 -1 -9 7
-6 19 6 21 -12 28 -20 8 -3 -10 -9 -9 -23 3 -10 9 -25 14 -31 12 -7 -3 -13 0
-13 5 0 5 -14 8 -31 6 -21 -3 -28 0 -23 8 5 8 2 9 -9 5 -9 -3 -19 -2 -22 3 -3
5 -12 7 -19 4 -8 -3 -17 -1 -21 5 -3 6 -15 11 -25 11 -10 0 -22 5 -26 12 -5 7
-3 8 6 3 9 -5 11 -4 6 3 -8 14 -10 14 -19 5z m2403 -233 c0 -5 -7 -7 -15 -4
-8 4 -15 8 -15 10 0 2 7 4 15 4 8 0 15 -4 15 -10z m-810 -130 c-8 -5 -19 -10
-25 -10 -5 0 -3 5 5 10 8 5 20 10 25 10 6 0 3 -5 -5 -10z m-70 -24 c0 -3 -4
-8 -10 -11 -5 -3 -10 -1 -10 4 0 6 5 11 10 11 6 0 10 -2 10 -4z"/>
<path d="M252 990 c0 -14 2 -19 5 -12 2 6 2 18 0 25 -3 6 -5 1 -5 -13z"/>
<path d="M688 913 c7 -3 16 -2 19 1 4 3 -2 6 -13 5 -11 0 -14 -3 -6 -6z"/>
<path d="M1108 873 c7 -3 16 -2 19 1 4 3 -2 6 -13 5 -11 0 -14 -3 -6 -6z"/>
</g>
</svg>
