<?xml version="1.0" encoding="utf-8"?>
<!-- Generator: Adobe Illustrator 26.0.0, SVG Export Plug-In . SVG Version: 6.00 Build 0)  -->
<svg version="1.1" id="Layer_1" xmlns="http://www.w3.org/2000/svg" xmlns:xlink="http://www.w3.org/1999/xlink" x="0px" y="0px"
	 viewBox="0 0 668.7 261.2" style="enable-background:new 0 0 668.7 261.2;" xml:space="preserve">
<style type="text/css">
	.st0{fill:#FFFFFF;}
</style>
<g>
	<g id="HATCH_00000062881780144313758350000008738969840360828577_">
		<path d="M2.4,222.1c-0.5-0.7-0.5-1.4-0.5-2.1c-0.8-6.8-1.2-13.5-1.6-20.3c-0.4-7.7-0.4-15.4-0.1-23.1c0.7-20,3.1-39.8,8.2-59.3
			c3.5-13.4,8.2-26.5,14.6-38.8c5.9-11.5,13.1-22.1,21.8-31.8c14.5-16,32.1-27.6,52.2-35.2c12.6-4.8,25.5-7.7,38.8-9.6
			c14-1.9,28-2.2,42-1.6c21.4,0.9,42.2,4.7,62.5,11.5c21.1,7.1,40.6,17.1,58.7,30c13.6,9.6,26,20.6,37.3,32.8
			c14.9,16,27.8,33.4,38,52.8c0.5,0.9,1,1.8,1.4,2.8c0.4,0.8,0.2,1.1-0.7,1.3c-0.5,0.1-1,0.1-1.5,0.1c-8.2,0-16.4,0-24.6,0
			c-1.6,0-2.6-0.5-3.4-2c-3.8-7.3-8.6-13.9-13.9-20.2c-13.6-16.1-29.7-28.9-48-39.3c-16.4-9.3-33.8-16-52-20.8
			c-11.8-3.1-23.8-5.4-35.9-6.9c-5.9-0.7-11.8-1.2-17.8-1.7c-8.8-0.6-17.6-0.9-26.4-0.6c-20.2,0.7-39.7,4.4-58.2,12.6
			C81.5,58,70.6,65,60.7,73.6c-12.3,10.8-22.2,23.6-30.3,37.8C22.1,126.2,16,142,11.6,158.3c-2.9,10.7-5.1,21.5-6.5,32.5
			c-1,7.4-1.8,14.8-2,22.3c-0.1,2.5-0.2,5.1-0.3,7.6C2.7,221.2,2.8,221.7,2.4,222.1z"/>
	</g>
	<g id="HATCH_00000055679229663606157780000007431637313927355783_">
		<path d="M183.5,184.3c0,6.5-0.6,12.8-0.3,19c0.3,5.4,0.2,10.8,0.3,16.2c0,0.4,0,0.9,0,1.3c0,2-0.3,2.3-2.3,2.3
			c-4.1,0-8.3,0-12.4,0c-1.9,0-2-0.2-2.1-2.1c0-0.5,0-1,0-1.5c0-29.7,0-59.3,0-89c0-3.5-0.4-6.9-0.7-10.4c-0.2-1.7-0.7-3.3-1.6-4.8
			c-1.2-2.1-3-3.4-5.4-4c-1.9-0.4-3.8-0.6-5.8-0.6c-1.7,0-2.9-2.2-2.3-3.7c0.3-0.7,0.9-0.7,1.5-0.7c2,0,4,0,6-0.1c2.6,0,5.1,0,7.7,0
			c2.6,0,5.1,0.3,7.6,0.7c4,0.6,6.5,3.1,7.9,6.7c1.1,2.9,1.4,5.9,1.6,8.9c0,0.7,0,1.3,0,2c0,8.4,0.5,16.9,0.3,25.3
			c0,1.9-0.4,3.9-0.3,5.8c0.1,7.2-0.1,14.3,0.5,21.6c0.6-0.2,0.9-0.8,1.3-1.3c2.6-3.3,5.3-6.7,7.9-10c4.5-5.7,8.9-11.5,13.6-17.1
			c4.2-5,9.4-7.9,15.9-8.8c2.9-0.4,5.8-0.7,8.7-0.7c1.8,0,2.1,0.3,2.2,2.1c0,0.3,0,0.6,0,0.9c0,2.1-0.2,2.2-2.2,2.5
			c-6,0.9-11.2,3.4-15,8.4c-5.3,6.9-10.8,13.8-16.2,20.6c-0.5,0.6-1,1.2-1.5,1.8c-0.6,0.7-0.6,1.4,0,2.1c1.7,2.1,3.3,4.3,5,6.5
			c2.4,3.1,4.8,6.2,7.3,9.3c4,5,7.9,10.1,12.1,15.1c3.8,4.5,8.5,7.9,14.3,9.7c2.3,0.7,2.6,1.8,1.1,3.7c-0.8,1-1.8,1.6-3.1,1.9
			c-2.6,0.7-5.3,0.8-8,0.6c-6.9-0.6-12.8-3.4-17.9-8.1c-2.5-2.3-4.7-4.9-6.7-7.6c-5.4-7.3-10.9-14.5-16.3-21.7
			C185.3,186.4,184.7,185.3,183.5,184.3z"/>
	</g>
	<g id="HATCH_00000094577833326055855970000006891378225868798133_">
		<path d="M547.5,120.7c0.2-1,0.9-1.5,1.5-2.1c4.8-5,10.3-9.2,16.4-12.7c10.2-5.8,21.1-9.1,32.8-10.4c11.5-1.2,22.8-0.2,33.8,3.7
			c7.9,2.7,15,6.8,21.1,12.7c7.9,7.6,12.6,16.9,14.6,27.6c1.2,6.3,1.3,12.7,0.8,19.1c-0.7,8.9-2.6,17.5-5.9,25.8
			c-3.9,9.7-9.4,18.4-16.4,26.1c-12,13.1-26.6,22.4-43.1,28.9c-1,0.4-1.9,0.9-3.1,0.9c0.2-0.8,0.8-1,1.2-1.3
			c13.8-9.9,25.6-21.8,34.9-36.1c7.4-11.5,12.6-23.8,14.6-37.4c1.4-9.4,1.5-18.8-0.9-28c-1.6-6.3-4.4-12-9-16.7
			c-3.6-3.7-7.9-6.4-12.7-8.3c-4.9-2-10.1-3-15.4-3.5c-10.3-0.9-20.4,0.1-30.4,2c-11.1,2.1-21.9,5.2-32.4,9.2
			C549,120.4,548.4,120.8,547.5,120.7z"/>
	</g>
	<g id="HATCH_00000126317553347612675640000002771370013321098429_">
		<path d="M317.5,181.4c0,12.8,0,25.6,0,38.5c0,3.2,0,3.2-3.2,3.2c-1.5,0-2.9-0.1-4.4,0c-1.4,0.1-2.3-0.5-3.1-1.5
			c-1.2-1.5-2.5-3-3.8-4.4c-1-1.1-1-1.1-2.2-0.2c-2.8,2.1-5.7,3.9-9,5.2c-4.6,1.9-9.4,2.8-14.4,2.8c-5.4,0-10.3-1.3-15.1-3.6
			c-5.3-2.5-8.9-6.7-11.1-12c-1.7-4.2-2.6-8.5-2.8-13.1c-0.6-10.7-0.1-21.4-0.3-32.1c-0.1-3.2-0.2-6.4-0.4-9.6
			c-0.1-1.5-0.5-2.9-1-4.2c-1.4-3.7-4.3-5.4-8.1-5.8c-0.9-0.1-1.8-0.1-2.7-0.5c-1.1-0.4-1.8-1.2-2.1-2.3c-0.3-1.1,0.1-1.6,1.2-1.7
			c1.6-0.1,3.3-0.1,4.9-0.2c4.5-0.3,9-0.1,13.5,0.4c1,0.1,2.1,0.1,3.1,0.4c3.4,1,5.5,3.4,6.8,6.6c0.9,2.3,1.3,4.7,1.4,7.1
			c0.6,10.2,0.3,20.4,0.3,30.6c0,4.4,0,8.8,0.5,13.1c0.8,6.5,3.1,12.3,9.3,15.7c4.9,2.7,10.1,2.7,15.4,1c3.6-1.1,6.4-3.4,9.1-5.9
			c1.3-1.2,2-2.7,1.7-4.6c-0.1-0.7-0.1-1.3-0.1-2c0-19.8,0-39.6,0-59.4c0-3.1,0.1-3.1,3.2-3.2c1.7,0,3.4,0.1,5.1,0.2
			c2,0.2,4-0.1,6-0.2c2.2-0.1,2.5,0.3,2.5,2.5C317.5,155.2,317.5,168.3,317.5,181.4z"/>
	</g>
	<g id="HATCH_00000124128377808249498010000014412101702934421918_">
		<path d="M597.9,198.5c0,7.1,0,14.2,0,21.3c0,0.5,0,1.1,0,1.6c-0.1,1.3-0.4,1.6-1.7,1.6c-1.9,0-3.8,0-5.6,0c-1.3,0-2.4-0.5-3.2-1.5
			c-1.3-1.6-2.6-3.2-4-4.8c-1.2-1.3-1.2-1.4-2.6-0.2c-4.3,3.7-9.4,6.1-14.9,7.4c-8.1,2-15.9,1.1-23.3-2.9c-4.1-2.2-7-5.5-9-9.7
			c-2.9-6.3-3.3-12.8-1.1-19.3c1.5-4.5,4.9-7.6,8.8-10.1c2.9-1.9,6.1-3,9.3-4.1c4.8-1.5,9.8-2.1,14.9-2.6c3.6-0.3,7.2-0.3,10.7-0.4
			c1.3,0,2.5-0.2,3.8-0.3c0.6-0.1,1-0.4,1-1.1c0-0.4,0.1-0.9,0-1.3c-0.4-2.1-0.2-4.3-0.5-6.4c-0.5-3.5-1-7-2.5-10.2
			c-0.8-1.7-1.6-3.4-2.8-4.9c-2.1-2.6-5-3.9-8.2-4.4c-4.4-0.8-8.7-0.3-12.9,1.1c-2.6,0.9-4.6,2.6-6.2,4.8c-1.4,2-2.5,4.1-3.3,6.5
			c-0.6,1.9-0.8,2.1-2.9,2.1c-1.6,0-3.2,0-4.7,0c-1.3,0-1.6-0.3-1.7-1.6c-0.2-4.1,0.4-8.1,2.4-11.8c1.4-2.6,3.4-4.6,6.2-5.6
			c5.7-2.1,11.6-3.6,17.8-3.6c2.8,0,5.6-0.1,8.4,0.1c4.8,0.3,9.5,1.2,13.8,3.5c4.7,2.5,7.8,6.6,10.1,11.4c2,4.4,2.9,9.1,3.2,13.9
			c0.6,7.7,0.6,15.4,0.7,23.1C597.9,192.9,597.9,195.7,597.9,198.5C597.9,198.5,597.9,198.5,597.9,198.5 M581.1,194.4
			c0-3.3,0-6.6,0-9.8c0-1.7-0.2-1.9-1.9-1.9c-2.7,0-5.3,0-8,0.3c-4.7,0.5-9.2,1.4-13.5,3.6c-2.3,1.2-4.5,2.7-6.1,4.8
			c-2.6,3.5-3.3,7.4-2.7,11.7c0.9,6.5,6,11.8,12.4,12.6c6.9,0.9,12.9-1,17.4-6.5c1.4-1.7,2.4-3.6,2.3-6
			C581,200.2,581.1,197.3,581.1,194.4z"/>
	</g>
	<g id="HATCH_00000162318759697754323300000017180982697472998807_">
		<path d="M464.8,196.1c0,8.1,0,16.2,0,24.2c0,2.6-0.1,2.7-2.6,2.7c-1.5,0-3,0-4.6,0c-1.4,0-2.5-0.5-3.3-1.5c-1-1.3-2.1-2.6-3.1-3.8
			c-0.3-0.4-0.6-0.8-0.9-1.2c-0.9-1-1-1-2.1-0.2c-2.1,1.5-4.1,3.1-6.4,4.2c-6.4,3.3-13.1,5-20.2,4.2c-6.4-0.7-12.3-2.8-16.9-7.6
			c-3-3.1-4.8-6.8-5.9-11c-1.2-4.7-1-9.4,0.6-14c1.8-5.1,5.3-8.6,10-11.1c5.1-2.7,10.5-4.4,16.2-5.2c6.1-0.9,12.2-1.2,18.3-1.1
			c0.9,0,1.8,0,2.7-0.2c0.7-0.2,1.2-0.6,1.2-1.4c-0.2-6.6-0.5-13.1-3.5-19.2c-2.4-4.9-6.4-7.4-11.8-8c-3.9-0.5-7.6,0.1-11.3,1.3
			c-3.7,1.1-6.1,3.9-7.8,7.2c-0.8,1.5-1.6,3-2.1,4.7c-0.3,1.1-1,1.6-2.1,1.6c-1.8,0-3.5,0-5.3,0c-1.3,0-1.8-0.5-1.7-1.8
			c0.3-3.2,0.3-6.4,1.4-9.5c1.5-4.1,4.3-6.8,8.4-8.3c5.9-2.1,11.9-3.2,18.2-3.1c2.4,0,4.9-0.1,7.3,0c5.8,0.3,11.1,1.9,15.8,5.3
			c4.7,3.4,7.4,8.1,9,13.6c1.8,6.1,2.2,12.4,2.3,18.7C464.8,182.5,464.8,189.3,464.8,196.1C464.8,196.1,464.8,196.1,464.8,196.1
			 M448,194.7C448,194.7,448,194.7,448,194.7c0-3.4,0-6.8,0-10.2c0-1.7-0.2-1.8-1.9-1.9c-2.9-0.1-5.7,0.1-8.5,0.4
			c-4.6,0.5-9,1.5-13.1,3.7c-2.9,1.5-5.4,3.5-6.9,6.5c-2.4,4.5-2.4,9.2-0.4,13.9c1.6,3.7,4.3,6.3,8,7.7c3.6,1.3,7.3,1.5,11.1,0.7
			c2-0.5,3.8-1.3,5.4-2.5c1.8-1.4,3.3-3.1,4.8-4.7c1.2-1.3,1.6-2.7,1.6-4.5C447.9,200.7,448,197.7,448,194.7z"/>
	</g>
	<g id="HATCH_00000134934684719299417690000000537614967319162526_">
		<path d="M94.3,132.8c-0.6,1.2-1,2.1-1.3,3c-5.7,13.4-11.4,26.7-17.1,40.1c-4.4,10.5-8.8,20.9-13.2,31.4c-1.3,3.2-2.8,6.4-4.1,9.5
			c-1.8,4.1-5.3,5.9-9.5,6.3c-1.5,0.2-1.8-0.3-1.2-1.7c1.5-3.7,3-7.3,4.6-10.9c3.2-7.6,6.4-15.1,9.6-22.7c4.5-10.6,9-21.1,13.5-31.7
			c5.7-13.5,11.5-27.1,17.2-40.6c1-2.5,2.1-4.9,3.1-7.4c0.5-1.2,1.2-1.7,2.5-1.7c4-0.2,4.1-0.2,5.6,3.3c2.4,5.8,4.8,11.7,7.2,17.5
			c4,9.7,8,19.3,11.9,29c3,7.2,6,14.4,8.9,21.6c3.4,8.3,6.7,16.7,10.3,24.9c1,2.3,2.1,4.5,3.4,6.7c1.7,2.9,3.7,5.4,6.7,7
			c1.7,0.9,3.6,1.5,5.5,1.9c0.9,0.2,1.8,0.4,2.6,0.7c0.8,0.3,1,0.9,0.7,1.6c-0.5,1-1.1,1.9-2.1,2.5c-1.3,0.7-2.7,1.1-4,1
			c-2.8-0.4-5.7-0.3-8.5-0.8c-5.4-1.1-10-3.7-14-7.4c-3.8-3.5-6.4-7.8-8.5-12.6c-6.8-15.5-13.3-31.2-19.8-46.8
			C101,149,98,141.6,95,134.2C94.8,133.8,94.7,133.5,94.3,132.8z"/>
	</g>
	<g id="HATCH_00000141442970520502214720000008645142826287892384_">
		<path d="M360.6,138c3.8-0.3,8.1,0.3,12.3,1.2c3.7,0.8,7.4,2.1,10.6,4.2c3.2,2.1,4.9,5.2,5.7,8.8c0.7,3.3,0.9,6.7,0.8,10.1
			c0,0.4-0.1,0.8-0.2,1.3c-0.2,0.7-0.6,1-1.3,0.9c-1.5-0.3-2.6-0.8-3.1-2.4c-0.6-2.1-1.6-4.1-2.6-6c-2.2-4.6-6.1-7.1-10.7-8.7
			c-2.9-1-5.9-1.5-8.9-1.5c-4,0-8,0.6-11.7,2.3c-4.8,2.2-8.6,9.4-4.2,15.4c2.2,3,5,5.1,8.2,6.8c4.6,2.4,9.6,4.2,14.3,6.4
			c4.4,2,8.9,3.8,12.9,6.7c2.9,2.1,5.5,4.4,7.3,7.6c3.3,6.2,3.6,12.5,1,19c-2.3,5.5-6.5,9.1-11.9,11.5c-5.2,2.3-10.7,3.3-16.3,3.4
			c-6,0.2-11.9-0.4-17.7-1.8c-3-0.7-5.8-1.8-8.4-3.4c-4.1-2.5-6.1-6.5-6.8-11.1c-0.4-2.7-0.5-5.4-0.4-8.2c0-1.6,0.3-1.8,1.8-1.9
			c2.1-0.2,2.1-0.2,2.8,1.9c0.5,1.5,1.1,3,1.7,4.4c1.6,4.3,4.7,7.2,8.7,9.2c3.8,1.8,7.8,2.7,12,2.8c3,0.1,6.1-0.1,9.1-0.7
			c2.7-0.5,5.1-1.5,7.3-3.1c4.9-3.7,5.5-10.5,1.4-15.1c-2.3-2.6-5.2-4.4-8.2-6c-3.9-2-8.1-3.7-12.2-5.3c-5.3-2.1-10.5-4.5-15.1-8
			c-3.1-2.3-5.7-5.1-7.3-8.7c-3.4-7.7-2.1-17.6,4-23.7c3.8-3.8,8.4-5.9,13.5-7.1C352.5,138.1,356.3,137.9,360.6,138z"/>
	</g>
	<g id="HATCH_00000042700807732986607230000000366023931730712746_">
		<path d="M476.7,189.5c0-9.7,0-19.3,0-29c0-2.7-0.5-5.3-0.8-8c-0.2-1.6-1-3.1-1.9-4.5c-1.6-2.4-4.1-3.3-6.8-3.7
			c-1.3-0.2-2.5-0.3-3.8-0.5c-1-0.2-1.2-0.5-0.9-1.5c0.6-2,1.2-2.5,3.2-2.5c3.5,0,7-0.4,10.6-0.3c2.4,0.1,4.7,0.3,7,0.8
			c3.4,0.7,6.1,2.7,8.2,5.4c1.1,1.3,1.1,1.4,2.5,0.2c2.5-2.2,5.2-4,8.2-5.4c5.3-2.5,10.9-3.1,16.7-2.2c3.9,0.7,7,2.7,9.3,5.9
			c0.8,1.1,1.6,2.3,2.3,3.5c0.6,1.1,0.5,1.4-0.4,2.1c-1.7,1.2-3.3,2.5-5,3.7c-1.2,0.9-1.3,0.9-2.5,0c-4.3-3.2-9.1-4.4-14.4-3.9
			c-4.1,0.4-7.8,1.8-11.1,4.2c-1.2,0.9-2.1,2-3.2,3c-0.5,0.5-0.8,1.2-0.8,2c0,0.5,0,1.1,0,1.6c0,19.8,0,39.6,0,59.4
			c0,3.2,0,3.2-3.2,3.2c-3.6,0-7.3,0-10.9,0c-2.1,0-2.3-0.3-2.3-2.3C476.7,210.3,476.7,199.9,476.7,189.5
			C476.7,189.5,476.7,189.5,476.7,189.5z"/>
	</g>
	<g id="HATCH_00000155842986198715644580000011320934797864535990_">
		<path d="M178.4,261.1c-6.2,0.1-10.3-3.1-12.7-8.4c-1.3-2.9-1.5-6.1-0.6-9.4c1.2-4,3.5-6.8,7.1-8.8c3.6-2,7.3-2.3,11.1-0.8
			c4.3,1.7,7.5,4.4,9,8.8c0.9,2.8,1.1,5.7,0.1,8.5c-1.6,4.9-5.2,7.8-9.7,9.7C181.4,261.4,179.9,261,178.4,261.1 M179,239.8
			c-0.9,0-1.3,0-1.8,0c-1.3,0-2.4,0.5-3.4,1.4c-2.4,2.4-3.3,5.1-2.2,8.4c1.4,4,5.1,5.9,8.9,4.8c2.6-0.7,5-2.2,5.6-5.3
			c0.5-2.6,0.2-4.8-1.4-6.8C183.2,240.4,181.2,239.4,179,239.8z"/>
	</g>
	<g id="HATCH_00000083802432844431125710000007533938720518760586_">
		<path d="M520.7,261.1c-1.4-0.1-3,0.4-4.3-0.3c-2.4-1.3-4.8-2.6-6.5-4.8c-1.8-2.3-2.7-4.9-2.9-7.9c-0.1-3.3,0.5-6.4,2.4-9.1
			c1.8-2.7,4.3-4.4,7.3-5.3c1.4-0.4,2.7-1,4.2-0.8c3.1,0.4,6,1.3,8.5,3.2c2.3,1.7,3.8,4,5,6.5c0.4,0.9,0.6,1.8,0.6,2.8
			c0,0.6,0,1.2,0,1.8c0.4,5.8-2.8,9.5-7.4,12.4C525.6,260.9,523.2,261.3,520.7,261.1 M520.9,254.7c2,0.3,3.7-0.7,5.4-1.9
			c2.2-1.5,3.2-5.2,2.2-7.7c-1.7-4.5-4-5.3-7.7-5.4c-1.8,0-3.7,0.2-4.9,1.8c-1.9,2.5-3,5.1-1.8,8.3
			C515.1,252.8,517.6,254.7,520.9,254.7z"/>
	</g>
	<g id="HATCH_00000151506697636591101230000002407150596255555751_">
		<path d="M587.4,248c0.3-0.7,0.1-1.3,0.1-1.9c0-3.6,0-7.2,0-10.7c0-1.6,0.2-1.8,1.7-1.8c1,0,2.1,0,3.1,0c0.9,0,1.3,0.5,1.4,1.4
			c0,0.5,0,1,0,1.5c0,7.2,0,14.5,0,21.7c0,3-0.5,3.4-3.9,2.8c-1.6-0.3-2.8-1.2-3.7-2.6c-2.2-3.1-4.4-6.2-6.6-9.4
			c-0.6-0.8-1.2-1.6-1.9-2.4c-0.5,0.7-0.3,1.3-0.3,1.9c0,3.5,0,6.9,0,10.4c0,2-0.2,2.2-2.2,2.2c-0.8,0-1.6,0-2.4,0
			c-0.9,0-1.3-0.5-1.4-1.4c0-0.4,0-0.8,0-1.3c0-7.5,0-14.9,0-22.4c0-0.2,0-0.5,0-0.7c0.1-1.7,0.3-1.9,2-1.7c1.4,0.1,2.6,0.4,3.8,1.1
			c0.5,0.3,1,0.7,1.3,1.3c2.2,3.6,4.9,6.9,7.3,10.4C586.2,246.9,586.7,247.5,587.4,248z"/>
	</g>
	<g id="HATCH_00000036233046571560881770000016079186376701873538_">
		<path d="M229,247.2c0-3.9,0-7.8,0-11.7c0-1.8,0.1-2,2-2c2.9,0,5.8-0.2,8.7,0c5.2,0.3,9.2,2.5,11.8,7.3c1,1.8,1.7,3.7,1.7,5.7
			c0,5.6-2.4,10-7.5,12.7c-2.4,1.2-4.9,1.9-7.6,1.8c-2-0.1-4,0-6,0c-3,0-3,0-3-2.9C229,254.5,229,250.8,229,247.2 M235.6,254.1
			c1.5-0.2,3-0.1,4.5-0.1c1.7-0.1,3.2-0.7,4.4-1.8c1.3-1.2,1.7-2.7,1.9-4.4c0.2-2.3-0.4-4.3-2.2-5.9c-2.3-2.1-5-2.1-7.8-2
			c-0.6,0-0.8,0.4-0.9,1c-0.2,1.1-0.4,2.1-0.4,3.2c0,2.2,0,4.4,0,6.6C235.1,251.8,235.1,253,235.6,254.1z"/>
	</g>
	<g id="HATCH_00000151526809104873712590000011933306929318319025_">
		<path d="M107.6,246.9c0-3.8,0-7.7,0-11.5c0-1.8,0.2-1.9,1.9-1.9c3.2,0,6.5-0.1,9.7,0c4.3,0.2,7.5,2.5,9,6c0.8,1.9,0.3,3.7-0.5,5.4
			c-0.6,1.2-1.4,2.3-2.3,3.3c-0.6,0.6-0.7,1-0.1,1.8c1.7,2.5,3.3,5.1,4.9,7.6c0.2,0.4,0.4,0.7,0.6,1.1c0.6,1.4,0.2,2-1.3,2.2
			c-0.2,0-0.5,0-0.7,0c-3.4,0.7-5.2-1.2-6.5-3.9c-0.6-1.3-1.5-2.4-2.2-3.6c-1.2-1.9-2.9-2.9-4.9-3.5c-0.8-0.3-1.1-0.1-1.1,0.9
			c-0.1,1.5,0,3,0,4.6c0,1.2,0,2.4,0,3.6c-0.1,1.3-0.5,1.8-1.7,1.9c-1,0.1-2.1,0.1-3.1,0c-1.1-0.1-1.5-0.5-1.5-1.6
			c-0.1-1.6,0-3.2,0-4.7C107.6,252,107.6,249.5,107.6,246.9 M116.1,239.6c-0.6,0.2-1.9-0.8-2.6,0.3c-0.6,0.9-0.2,2.3-0.2,3.4
			c0,0.7,0.3,1.1,1.1,1.1c1.6,0.1,3.2,0.1,4.7,0.1c0.7,0,1.4-0.2,2.1-0.5c1.5-0.8,1.8-2.2,0.6-3.4c-0.5-0.5-1-0.8-1.7-0.9
			C118.9,239.3,117.7,239.3,116.1,239.6z"/>
	</g>
	<g id="HATCH_00000112610116213127322050000006189658207371246514_">
		<path d="M311.3,244c0,2.5-0.1,5.1,0,7.6c0.1,2.7-1.2,4.7-3,6.4c-3.1,3-7,3.6-11,2.8c-3.5-0.8-7.6-4.6-7.9-9
			c-0.2-3.4-0.2-6.8-0.3-10.2c0-1.4,0.5-2.6,0.4-4c-0.1-1,0.1-1.9-0.2-2.9c-0.2-0.8,0.1-1.3,1-1.3c1.3,0,2.7,0,4,0
			c0.8,0,1.1,0.5,1.1,1.2c0,0.5,0,1,0,1.5c0,3.3,0.1,6.6,0,9.8c-0.1,1.9,0.3,3.7,0.5,5.6c0.2,1.6,1.4,2.5,2.7,2.9
			c3.3,1,6.1-0.9,6.2-4.1c0.1-4.2,0-8.5,0-12.7c0-0.5,0-1,0-1.5c0.1-2.3,0.5-2.7,2.7-2.7c4,0,3.6-0.4,3.6,3.6
			C311.3,239.4,311.3,241.7,311.3,244z"/>
	</g>
	<g id="HATCH_00000117664169443011897760000010390207893029523079_">
		<path d="M361.4,261.1c-6.1,0.6-9.8-3.1-12.7-7.6c-1.8-2.8-1.8-6.3-1.1-9.7c0.8-3.7,3.2-6,5.8-8.4c0.6-0.6,1.4-0.7,2.1-1.1
			c1.4-0.7,3-1.1,4.5-1.4c2.1-0.5,4.1,0.3,6,0.9c2.1,0.7,3.9,2,5.7,3.1c0.9,0.5,1,1.4,0.3,2.1c-0.9,0.9-1.9,1.7-2.7,2.7
			c-0.5,0.6-1.3,0.5-1.8,0.1c-2.2-2-5-2-7.7-1.9c-2.6,0.1-5.3,2.8-5.4,5.4c0,1.2-0.1,2.3,0,3.5c0.2,2,1.1,3.7,3,4.7
			c1.5,0.8,2.9,1.3,4.6,1.2c1.2,0,2.1-0.6,3-1.1c0.7-0.3,1.5-0.6,2.1-1c1.2-0.7,2.1-0.3,2.9,0.5c0.8,0.7,1.3,1.6,2.1,2.3
			c0.5,0.5,0.4,1.1-0.2,1.6c-2,1.4-4,2.9-6.3,3.8C364.2,261.4,362.8,261,361.4,261.1z"/>
	</g>
	<g id="HATCH_00000096026883818368895340000000453682159712443541_">
		<path d="M50.7,247.1c0-3.8,0-7.7,0-11.5c0-1.9,0.2-2.1,2.1-2.1c3,0,6.1-0.1,9.1,0c2.8,0.2,5.7,0.6,7.8,3c1.3,1.4,2.2,3,2.1,5.1
			c-0.1,1.4,0.2,2.9-0.8,4.2c-1.2,1.7-2.8,3.1-4.8,3.8c-2,0.7-4.2,1-6.4,0.9c-2.6-0.1-2.6,0-2.6,2.5c0,2.1,0,4.1,0,6.2
			c0,1.5-0.3,1.7-1.7,1.8c-0.8,0.1-1.7,0-2.5,0c-1.7-0.1-2.1-0.5-2.1-2.2C50.7,254.9,50.7,251,50.7,247.1
			C50.7,247.1,50.7,247.1,50.7,247.1 M60.5,239.5C60.5,239.5,60.5,239.5,60.5,239.5c-0.2,0-0.4,0-0.5,0c-3.5,0.1-3.3-0.5-3.2,3.6
			c0,0.9,0.4,1.4,1.3,1.3c1.5,0,3,0,4.6,0c0.7,0,1.3-0.2,1.9-0.5c0.8-0.4,1.5-1,1.4-1.9c0-0.9-0.6-1.5-1.4-2c-0.5-0.3-1-0.4-1.6-0.4
			C62.2,239.5,61.4,239.5,60.5,239.5z"/>
	</g>
	<g id="HATCH_00000065788813029569520870000013473320065750554022_">
		<path d="M414.8,250.1c0-2.7,0-5.5,0-8.2c0-1.9-0.2-2-2.1-2.1c-1.1,0-2.2,0-3.3,0c-1.8-0.1-2.2-0.5-2.3-2.3c0-0.3,0-0.6,0-0.9
			c0-2.4,0.3-2.7,2.6-3c0.4-0.1,0.7,0,1.1,0c5.3,0,10.6,0,15.9,0c1.9,0,2,0.1,2.1,2.1c0,0.9,0,1.8,0,2.7c-0.1,1.2-0.2,1.4-1.4,1.5
			c-1.5,0.1-2.9,0-4.4,0c-1.7,0-1.9,0.1-1.9,1.9c0,5.5,0,11.1,0,16.6c0,2.6-0.1,2.7-2.6,2.7c-3.6,0-3.7,0-3.7-3.6
			C414.8,254.9,414.8,252.5,414.8,250.1z"/>
	</g>
	<g id="HATCH_00000149369872149671883190000001138791175091276190_">
		<path d="M464.6,247.3c0-3.9,0-7.8,0-11.7c0-1.9,0.2-2.1,2.1-2.1c0.9,0,1.8,0,2.7,0c1.3,0.1,1.5,0.3,1.6,1.7c0,0.3,0,0.6,0,0.9
			c0,7.4,0,14.8,0,22.2c0,0.3,0,0.6,0,0.9c-0.1,1.3-0.4,1.6-1.6,1.7c-1,0.1-2.1,0.1-3.1,0c-1.4-0.1-1.7-0.4-1.7-1.8
			c0-2.4,0-4.9,0-7.3C464.6,250.3,464.6,248.8,464.6,247.3z"/>
	</g>
</g>
</svg>
