<svg id="Layer_1" data-name="Layer 1" xmlns="http://www.w3.org/2000/svg" xmlns:xlink="http://www.w3.org/1999/xlink" viewBox="0 0 1166.79 534.97"><defs><style>.cls-1{fill:#fff;}.cls-2,.cls-3{fill:none;stroke:#fff;stroke-miterlimit:10;}.cls-2{stroke-width:2.83px;}.cls-3{stroke-width:2.13px;}.cls-4{fill:#0060a8;}.cls-5{fill:#ee3e33;}.cls-6{fill:#fff100;}.cls-7{fill:url(#linear-gradient);}</style><linearGradient id="linear-gradient" x1="333.04" y1="391.32" x2="1121.48" y2="391.32" gradientUnits="userSpaceOnUse"><stop offset="0" stop-color="#9f1622"/><stop offset="0.4" stop-color="#eb2b3a"/></linearGradient></defs><path class="cls-1" d="M349.26,79.83a5.87,5.87,0,0,0-.37,4.16A5,5,0,0,0,351,86.63a5.52,5.52,0,0,0,2.94.91H355v1.23H329.3V87.54h1.1a11.45,11.45,0,0,0,5.82-1.77,13.06,13.06,0,0,0,5-5.94Zm26.33-79,.61,12.86L345.71,88.4h-8.33L369,15.78c.16-.32.51-1.12,1-2.38s1.14-2.72,1.84-4.35,1.28-3.2,1.77-4.72a18.05,18.05,0,0,0,.86-3.49Zm14.33,57.31v4.66H353.06V58.15ZM375.59.84,414.29,88H396.16L369.83,20.44Zm17.39,79h17.63a13.06,13.06,0,0,0,5,5.94,11.45,11.45,0,0,0,5.82,1.77h1v1.23H387.22V87.54h1.11a5.49,5.49,0,0,0,4.16-2C393.71,84.18,393.88,82.28,393,79.83Z"/><path class="cls-1" d="M452.37,1.33c1.55,0,3.39.09,5.51.25s4.27.39,6.43.67,4.1.57,5.82.86a14.14,14.14,0,0,1,3.55.92l-1,15.55h-1.22A12.18,12.18,0,0,0,467,9.66C464,7.21,460.17,6,455.43,6s-8.51,1.22-11.32,3.67a11.8,11.8,0,0,0-4.35,8.94,8.91,8.91,0,0,0,1.77,5.94A22.89,22.89,0,0,0,447,29.87l23.64,17.51a20.6,20.6,0,0,1,7.35,8A21.56,21.56,0,0,1,480.05,66q-.37,11.27-8.15,17.88t-21.12,6.61a55.65,55.65,0,0,1-9.25-.79,38.8,38.8,0,0,1-8.63-2.45,19.33,19.33,0,0,1-6.24-4,18.59,18.59,0,0,1-.62-5.94,38.41,38.41,0,0,1,1-7.23,31,31,0,0,1,2.08-6.3h1.11a20.86,20.86,0,0,0,2.08,11.32,18.77,18.77,0,0,0,7.53,8,22.06,22.06,0,0,0,11.69,2.76q7.61-.24,12.19-4.29a13.22,13.22,0,0,0,4.59-10.41,11.92,11.92,0,0,0-2-6.67A18.09,18.09,0,0,0,460.21,59L438,42.23a21.18,21.18,0,0,1-8-8.87,22.25,22.25,0,0,1-2-10.84,23.18,23.18,0,0,1,3.31-10.72,20.86,20.86,0,0,1,8.26-7.65A27.06,27.06,0,0,1,452.37,1.33ZM473.8,2.56l-.12,2.57H460.94V2.56Z"/><path class="cls-1" d="M501.84,12h-.36a7.93,7.93,0,0,0-2.39-5.45,7.44,7.44,0,0,0-5.45-2.27h-1.59V3.05h9.79Zm0,67.84v8.94h-9.79V87.54h1.59a7.43,7.43,0,0,0,5.45-2.26,7.93,7.93,0,0,0,2.39-5.45ZM516.42,3.05V88.77H501.48V3.05Zm33.55,0V7.82H516.05V3.05Zm-5.75,41.14v4.66H516.05V44.19ZM548.87,84,551,88.77h-34.9V84Zm8.57-18.49-6.12,23.27h-22.9L532.83,84a23.83,23.83,0,0,0,10.77-2.26,20.76,20.76,0,0,0,7.59-6.49,38.56,38.56,0,0,0,5-9.74ZM544.22,33.91V44.44H534.05v-.25a9.11,9.11,0,0,0,6.37-2.69A8.66,8.66,0,0,0,543,35.13V33.91Zm0,14.69V59.13H543V57.79a8.78,8.78,0,0,0-8.94-8.94V48.6ZM550,.84V4.39L535,3.05a45.83,45.83,0,0,0,5.69-.37q3-.36,5.58-.86A17.74,17.74,0,0,0,550,.84Zm0,6.62V20.19h-1.22V18.48a10.51,10.51,0,0,0-2.94-7.66A10.89,10.89,0,0,0,538,7.7V7.46Z"/><path class="cls-1" d="M578.5,79.83a5.87,5.87,0,0,0-.37,4.16,5,5,0,0,0,2.09,2.64,5.52,5.52,0,0,0,2.94.91h1.1v1.23H558.54V87.54h1.1a11.45,11.45,0,0,0,5.82-1.77,13.06,13.06,0,0,0,5-5.94Zm26.33-79,.61,12.86L575,88.4h-8.33l31.6-72.62c.16-.32.51-1.12,1-2.38s1.14-2.72,1.84-4.35,1.28-3.2,1.77-4.72a18.05,18.05,0,0,0,.86-3.49Zm14.33,57.31v4.66H582.3V58.15ZM604.83.84,643.53,88H625.4L599.08,20.44Zm17.39,79h17.63a13.06,13.06,0,0,0,5,5.94,11.45,11.45,0,0,0,5.82,1.77h1v1.23H616.46V87.54h1.11a5.49,5.49,0,0,0,4.16-2C623,84.18,623.12,82.28,622.22,79.83Z"/><path class="cls-1" d="M663.24,80.07v8.7H653.08V87.54h2.33a7.53,7.53,0,0,0,7.47-7.47Zm-.49-78.86L676.35,16l.12,72.74H662.88V16.52a101.3,101.3,0,0,0-1.35-15.31Zm0,0,75.81,75,1.34,14.32L664.1,15.66Zm13.72,78.86a7.51,7.51,0,0,0,7.47,7.47h2.33v1.23H676.1v-8.7Zm39.92-77h10.16v8.69h-.24A7.64,7.64,0,0,0,724,6.42a7.22,7.22,0,0,0-5.32-2.15h-2.33Zm23.27,0V74.81a76.48,76.48,0,0,0,.37,8c.24,2.37.57,4.94,1,7.71h-1.1l-13.59-15.3V3.05Zm9.79,0V4.27h-2.2A7.3,7.3,0,0,0,742,6.42a7.56,7.56,0,0,0-2.32,5.32h-.37V3.05Z"/><path class="cls-1" d="M347.67,131.8h-.37a7.89,7.89,0,0,0-2.39-5.45,7.41,7.41,0,0,0-5.44-2.26h-1.6v-1.23h9.8Zm0,67.85v8.93h-9.8v-1.22h1.6a7.38,7.38,0,0,0,5.44-2.27,7.86,7.86,0,0,0,2.39-5.44Zm14.57-76.79v85.72H347.3V122.86Zm-.37,8.94v-8.94h9.8v1.23h-1.59a7.43,7.43,0,0,0-5.45,2.26,7.89,7.89,0,0,0-2.39,5.45Zm0,67.85h.37a7.86,7.86,0,0,0,2.39,5.44,7.4,7.4,0,0,0,5.45,2.27h1.59v1.22h-9.8Z"/><path class="cls-1" d="M391.75,199.89v8.69H381.59v-1.22h2.33a7.53,7.53,0,0,0,7.47-7.47ZM391.26,121l13.6,14.81.12,72.74H391.39V136.33A101.18,101.18,0,0,0,390,121Zm0,0L467.07,196l1.34,14.33-75.8-74.82ZM405,199.89a7.51,7.51,0,0,0,7.47,7.47h2.33v1.22H404.61v-8.69Zm39.92-77h10.17v8.7h-.25a7.71,7.71,0,0,0-2.26-5.33,7.24,7.24,0,0,0-5.33-2.14H444.9Zm23.27,0v71.76a76.34,76.34,0,0,0,.37,8q.36,3.55,1,7.72h-1.11L454.82,195V122.86Zm9.8,0v1.23h-2.21a7.26,7.26,0,0,0-5.26,2.14,7.57,7.57,0,0,0-2.33,5.33h-.37v-8.7Z"/><path class="cls-1" d="M509.07,131.68l-17.76.12a13.1,13.1,0,0,0-5-5.94,11.44,11.44,0,0,0-5.81-1.77h-1v-1.23H514.7v1.23h-1.1a5.38,5.38,0,0,0-4.1,2Q507.72,128,509.07,131.68Zm18.25,79.11L487.64,123.6h18l27.43,67.6Zm0,0-.74-12.86,31.6-74.7h8.45l-32.7,72.62c-.17.33-.53,1.12-1.1,2.39s-1.19,2.71-1.84,4.34-1.23,3.21-1.72,4.72a18.64,18.64,0,0,0-.85,3.49Zm27.3-79.11q1.47-3.68-.36-5.63a5.71,5.71,0,0,0-4.29-2h-1.1v-1.23h25.71v1.23h-1.1a11.58,11.58,0,0,0-5.75,1.77,13,13,0,0,0-5,5.94Z"/><path class="cls-1" d="M587.56,131.8h-.36a7.89,7.89,0,0,0-2.39-5.45,7.43,7.43,0,0,0-5.45-2.26h-1.59v-1.23h9.79Zm0,67.85v8.93h-9.79v-1.22h1.59a7.4,7.4,0,0,0,5.45-2.27,7.86,7.86,0,0,0,2.39-5.44Zm14.58-76.79v85.72H587.2V122.86Zm33.55,0v4.78H601.77v-4.78ZM629.94,164v4.65H601.77V164Zm4.65,39.8,2.08,4.77h-34.9v-4.77Zm8.57-18.49L637,208.58h-22.9l4.41-4.77a23.83,23.83,0,0,0,10.77-2.27,20.78,20.78,0,0,0,7.6-6.49,38.47,38.47,0,0,0,5-9.73Zm-13.22-31.6v10.53H619.77V164a9.11,9.11,0,0,0,6.37-2.69,8.68,8.68,0,0,0,2.57-6.37v-1.23Zm0,14.7V179h-1.23V177.6a8.78,8.78,0,0,0-8.94-8.94v-.24Zm5.75-47.76v3.55l-14.94-1.35a48.05,48.05,0,0,0,5.7-.36c2-.25,3.85-.53,5.57-.86A18.41,18.41,0,0,0,635.69,120.66Zm0,6.61V140h-1.22v-1.72a10.48,10.48,0,0,0-2.94-7.65,10.89,10.89,0,0,0-7.84-3.12v-.25Z"/><path class="cls-1" d="M679.78,121.15c1.55,0,3.38.08,5.51.24s4.26.39,6.43.68,4.1.57,5.81.85a14.46,14.46,0,0,1,3.55.92l-1,15.56h-1.22a12.16,12.16,0,0,0-4.47-9.92q-4.47-3.67-11.57-3.68t-11.33,3.68a11.8,11.8,0,0,0-4.35,8.94,8.88,8.88,0,0,0,1.78,5.93,22.34,22.34,0,0,0,5.45,5.33L698,167.19a20.51,20.51,0,0,1,7.35,8,21.62,21.62,0,0,1,2.08,10.6q-.36,11.26-8.14,17.88t-21.13,6.61a55.47,55.47,0,0,1-9.24-.8,38.36,38.36,0,0,1-8.64-2.45,19.16,19.16,0,0,1-6.24-4,18.33,18.33,0,0,1-.61-5.94,37.51,37.51,0,0,1,1-7.22,30.67,30.67,0,0,1,2.08-6.31h1.1a21,21,0,0,0,2.08,11.33,19,19,0,0,0,7.53,8,22.1,22.1,0,0,0,11.7,2.76q7.59-.26,12.18-4.29A13.23,13.23,0,0,0,695.7,191a12,12,0,0,0-2-6.67,18,18,0,0,0-6.13-5.45l-22.16-16.78a21.2,21.2,0,0,1-8-8.88,22,22,0,0,1-2-10.84,23,23,0,0,1,3.3-10.71A20.74,20.74,0,0,1,667,124,27,27,0,0,1,679.78,121.15Zm21.43,1.22-.13,2.57H688.35v-2.57Z"/><path class="cls-1" d="M715.53,120.54a23.33,23.33,0,0,0,3.74,1c1.67.32,3.53.61,5.57.85a46.52,46.52,0,0,0,5.63.37l-14.94,1.35Zm75.8,2.2v4.65h-75.8v-4.65ZM727.41,127v.36a10.88,10.88,0,0,0-7.71,3.07,10.41,10.41,0,0,0-2.94,7.71v1.59l-1.23.13V127Zm19,72.62v8.93H736.6v-1.22h1.59a7.4,7.4,0,0,0,5.45-2.27,7.85,7.85,0,0,0,2.38-5.44ZM761,123.23v85.35H746V123.23Zm-.36,76.42H761a7.9,7.9,0,0,0,2.39,5.44,7.4,7.4,0,0,0,5.45,2.27h1.59v1.22H760.6Zm30.73-79.11v3.55l-14.94-1.35a46,46,0,0,0,5.7-.37c2-.24,3.86-.53,5.57-.85A18.92,18.92,0,0,0,791.33,120.54Zm0,6.49v12.86l-1.22-.13v-1.59a10.41,10.41,0,0,0-2.94-7.71,10.88,10.88,0,0,0-7.71-3.07V127Z"/><path class="cls-1" d="M806.64,199.65v8.93H793.05v-1.22h2a9.26,9.26,0,0,0,5.88-2,8.35,8.35,0,0,0,3.06-5.69Zm7.1-78.5H815l3.67,10.65-8,76.78h-7.84Zm-2.32,80.45v.62a5.45,5.45,0,0,0,1.41,3.61,4.27,4.27,0,0,0,3.36,1.65H818v1.1h-7.47v-7ZM815,121.15l38.45,69.31-5.63,20.33L812,145Zm72.13,0,1,11.63-34.54,64.78a63.24,63.24,0,0,0-3.3,7.35,19.7,19.7,0,0,0-1.23,5.88h-1.22l-3.8-9.68Zm-4.66,80.45h.86v7h-7.47v-1.1h1.84a4.25,4.25,0,0,0,3.43-1.65,5.63,5.63,0,0,0,1.34-3.61v-.62Zm5.76-80.45,11.26,87.43H883.18l-6.37-62.2,10.29-25.23Zm7.47,78.5h2.69a8.88,8.88,0,0,0,3.13,5.69,9,9,0,0,0,5.81,2h2v1.22H895.67Z"/><path class="cls-1" d="M924.69,131.8h-.37a7.87,7.87,0,0,0-2.38-5.45,7.43,7.43,0,0,0-5.45-2.26h-1.6v-1.23h9.8Zm0,67.85v8.93h-9.8v-1.22h1.6a7.4,7.4,0,0,0,5.45-2.27,7.85,7.85,0,0,0,2.38-5.44Zm14.57-76.79v85.72H924.32V122.86Zm33.56,0v4.78H938.9v-4.78ZM967.06,164v4.65H938.9V164Zm4.66,39.8,2.08,4.77H938.9v-4.77Zm8.57-18.49-6.12,23.26h-22.9l4.4-4.77a23.85,23.85,0,0,0,10.78-2.27,20.67,20.67,0,0,0,7.59-6.49,38.15,38.15,0,0,0,5-9.73Zm-13.23-31.6v10.53H956.9V164a9.11,9.11,0,0,0,6.37-2.69,8.68,8.68,0,0,0,2.57-6.37v-1.23Zm0,14.7V179h-1.22V177.6a8.78,8.78,0,0,0-8.94-8.94v-.24Zm5.76-47.76v3.55l-14.94-1.35a47.89,47.89,0,0,0,5.69-.36c2-.25,3.86-.53,5.57-.86A18.55,18.55,0,0,0,972.82,120.66Zm0,6.61V140h-1.23v-1.72a10.48,10.48,0,0,0-2.94-7.65,10.84,10.84,0,0,0-7.83-3.12v-.25Z"/><path class="cls-1" d="M998.53,199.89v8.69H988.37v-1.22h2.33a7.53,7.53,0,0,0,7.47-7.47ZM998,121l13.6,14.81.12,72.74H998.17V136.33a101.18,101.18,0,0,0-1.35-15.3Zm0,0L1073.85,196l1.34,14.33-75.8-74.82Zm13.72,78.86a7.51,7.51,0,0,0,7.47,7.47h2.33v1.22h-10.17v-8.69Zm39.92-77h10.16v8.7h-.24a7.68,7.68,0,0,0-2.27-5.33,7.21,7.21,0,0,0-5.32-2.14h-2.33Zm23.27,0v71.76a76.34,76.34,0,0,0,.37,8q.36,3.55,1,7.72h-1.1L1061.6,195V122.86Zm9.79,0v1.23h-2.2a7.29,7.29,0,0,0-5.27,2.14,7.56,7.56,0,0,0-2.32,5.33h-.37v-8.7Z"/><path class="cls-1" d="M1091,120.54a23.15,23.15,0,0,0,3.73,1c1.68.32,3.53.61,5.58.85a46.39,46.39,0,0,0,5.63.37L1091,124.09Zm75.8,2.2v4.65H1091v-4.65ZM1102.87,127v.36a10.89,10.89,0,0,0-7.72,3.07,10.41,10.41,0,0,0-2.94,7.71v1.59l-1.22.13V127Zm19,72.62v8.93h-9.8v-1.22h1.59a7.39,7.39,0,0,0,5.45-2.27,7.86,7.86,0,0,0,2.39-5.44Zm14.57-76.42v85.35h-14.94V123.23Zm-.37,76.42h.37a7.86,7.86,0,0,0,2.39,5.44,7.39,7.39,0,0,0,5.45,2.27h1.59v1.22h-9.8Zm30.74-79.11v3.55l-14.94-1.35a46.11,46.11,0,0,0,5.7-.37c2-.24,3.85-.53,5.57-.85A19.13,19.13,0,0,0,1166.79,120.54Zm0,6.49v12.86l-1.22-.13v-1.59a10.41,10.41,0,0,0-2.94-7.71,10.89,10.89,0,0,0-7.72-3.07V127Z"/><path class="cls-1" d="M347.67,251.62h-.37a7.89,7.89,0,0,0-2.39-5.45,7.42,7.42,0,0,0-5.44-2.27h-1.6v-1.22h9.8Zm0,67.84v8.94h-9.8v-1.22h1.6a7.42,7.42,0,0,0,5.44-2.27,7.89,7.89,0,0,0,2.39-5.45Zm14.57-76.78V328.4H347.3V242.68Zm33.56,0v4.77H361.87v-4.77ZM390,283.82v4.66H361.87v-4.66Zm-28.17,35.64h.37a7.89,7.89,0,0,0,2.39,5.45,7.44,7.44,0,0,0,5.45,2.27h1.59v1.22h-9.8ZM390,273.54v10.53H379.88v-.25a9,9,0,0,0,6.36-2.69,8.63,8.63,0,0,0,2.58-6.37v-1.22Zm0,14.69v10.53h-1.22v-1.34a8.8,8.8,0,0,0-8.94-8.94v-.25Zm5.76-47.76V244l-14.94-1.35a46,46,0,0,0,5.69-.37q3-.36,5.57-.86A17.88,17.88,0,0,0,395.8,240.47Zm0,6.62V259h-1.23v-1.6a9.72,9.72,0,0,0-2.75-7.16,9.86,9.86,0,0,0-7.29-2.76v-.36Z"/><path class="cls-1" d="M456.29,241q14.08,0,24.68,5.45a38.92,38.92,0,0,1,16.34,15.49q5.76,10.05,5.76,23.64t-5.76,23.63A38.89,38.89,0,0,1,481,324.67q-10.61,5.44-24.68,5.44t-24.74-5.44a39,39,0,0,1-16.28-15.5q-5.76-10-5.76-23.63t5.76-23.64a39,39,0,0,1,16.28-15.49Q442.08,241,456.29,241Zm0,84.5a26.58,26.58,0,0,0,16-4.9,31.45,31.45,0,0,0,10.53-13.84q3.74-8.93,3.74-21.18t-3.74-21.19a31.53,31.53,0,0,0-10.53-13.83,28.51,28.51,0,0,0-32,0,31.53,31.53,0,0,0-10.53,13.83Q426,273.29,426,285.54t3.74,21.18a31.45,31.45,0,0,0,10.53,13.84A26.58,26.58,0,0,0,456.29,325.46Z"/><path class="cls-1" d="M524.5,251.62h-.37a7.89,7.89,0,0,0-2.39-5.45,7.42,7.42,0,0,0-5.45-2.27H514.7v-1.22h9.8Zm0,67.84v8.94h-9.8v-1.22h1.59a7.42,7.42,0,0,0,5.45-2.27,7.89,7.89,0,0,0,2.39-5.45Zm14.57-76.78V328.4H524.13V242.68Zm14.7,0A39.74,39.74,0,0,1,564.24,244a26,26,0,0,1,8.75,4.16,19.62,19.62,0,0,1,5.94,7.16,23.17,23.17,0,0,1,2.14,10.35,26.18,26.18,0,0,1-2.32,10.66,22.22,22.22,0,0,1-6.86,8.75,20.17,20.17,0,0,1-11.14,4,16.34,16.34,0,0,1,6.3,4.1,39,39,0,0,1,5,5.94c.08.08.59.84,1.53,2.27s2.1,3.16,3.49,5.2,2.84,4.09,4.35,6.13,2.84,3.75,4,5.14a52.13,52.13,0,0,0,5,5.2,16.43,16.43,0,0,0,4.84,3.06,15.42,15.42,0,0,0,5.88,1.05v1.22H590.87a43.3,43.3,0,0,1-11.33-1.35,25.75,25.75,0,0,1-8.63-4,26.44,26.44,0,0,1-6.37-6.73c-.49-.74-1.18-1.86-2.08-3.37s-1.88-3.2-2.94-5.08-2.1-3.7-3.12-5.45-1.88-3.33-2.57-4.72-1.17-2.36-1.41-2.94a23.73,23.73,0,0,0-4.29-5.75,8.31,8.31,0,0,0-5-2.45v-1.23l1.59.07a25.22,25.22,0,0,0,3.07-.07,24.42,24.42,0,0,0,6.67-1.22,14,14,0,0,0,6.06-4.1,18.48,18.48,0,0,0,3.92-8.39c.16-.74.33-1.67.49-2.82a17.35,17.35,0,0,0,.12-3.55q-.36-8.56-4.41-13a14.11,14.11,0,0,0-10.28-4.65c-1.55-.08-3.19-.1-4.9-.06s-3.21.06-4.47.06H538.7q0-.12-.3-1.35c-.21-.82-.51-2-.92-3.55ZM538.7,319.46h.37a7.35,7.35,0,0,0,2.33,5.45,7.64,7.64,0,0,0,5.51,2.27h1.47v1.22H538.7Z"/><path class="cls-1" d="M611.2,242.68V250h-.37a5.65,5.65,0,0,0-1.9-4.41,6.61,6.61,0,0,0-4.59-1.72h-2v-1.22Zm14.57,0v53.88a35.9,35.9,0,0,0,3,15.19,22.48,22.48,0,0,0,21.37,13.59A25.73,25.73,0,0,0,663.61,322a22.94,22.94,0,0,0,8.76-9.43,31,31,0,0,0,3.12-14.39V242.68h7.72v55A33.81,33.81,0,0,1,679,314.75a28.52,28.52,0,0,1-11.94,11.32q-7.77,4.05-18.43,4-12,0-20.51-4a28.88,28.88,0,0,1-12.92-11.26,32.35,32.35,0,0,1-4.41-17.08V242.68Zm8.45,0v1.22h-2a6.62,6.62,0,0,0-4.59,1.72,5.65,5.65,0,0,0-1.9,4.41h-.24v-7.35Zm41.64,0V250h-.37a5.65,5.65,0,0,0-1.9-4.41A6.62,6.62,0,0,0,669,243.9h-2v-1.22Zm15.79,0v1.22H689.7a6.65,6.65,0,0,0-4.6,1.72,5.68,5.68,0,0,0-1.89,4.41H683v-7.35Z"/><path class="cls-1" d="M709.78,319.46v8.94H696.19v-1.22h1.95a9.23,9.23,0,0,0,5.88-2,8.23,8.23,0,0,0,3.06-5.69Zm7.1-78.5h1.23l3.67,10.66-8,76.78H706Zm-2.33,80.46V322a5.43,5.43,0,0,0,1.41,3.61,4.27,4.27,0,0,0,3.37,1.66h1.84v1.1H713.7v-7ZM718.11,241l38.45,69.32-5.64,20.32-35.75-65.76Zm72.12,0,1,11.64-34.53,64.78a65.29,65.29,0,0,0-3.31,7.35,19.93,19.93,0,0,0-1.22,5.87h-1.23l-3.79-9.67Zm-4.65,80.46h.86v7H779v-1.1h1.83a4.22,4.22,0,0,0,3.43-1.66,5.57,5.57,0,0,0,1.35-3.61v-.61ZM791.34,241,802.6,328.4H786.31L780,266.19,790.23,241Zm7.47,78.5h2.69a8.86,8.86,0,0,0,3.12,5.69,9,9,0,0,0,5.82,2h2v1.22H798.81Z"/><path class="cls-1" d="M854.28,266.68l-4.65-17.14a26.38,26.38,0,0,1,7.22-4.6A46.57,46.57,0,0,1,866,242a46,46,0,0,1,9.67-1,39,39,0,0,1,15.61,2.94A24.58,24.58,0,0,1,902,252.35a22.52,22.52,0,0,1,3.85,13.23,29,29,0,0,1-2.63,12,53.67,53.67,0,0,1-6.92,11.33,106.79,106.79,0,0,1-9.3,10.34q-5,4.9-9.8,9l-8.45,7.28h26.21a16.36,16.36,0,0,0,6.3-1.1,12.54,12.54,0,0,0,4.78-3.67,36.54,36.54,0,0,0,4.22-6.62h1.23l-6.86,24.25H848.89v-1.22q4.77-5,10.23-11T870,303.6a158.6,158.6,0,0,0,9.86-13.28A78.61,78.61,0,0,0,887,277.09a32.13,32.13,0,0,0,2.69-12.25q0-9.18-4.53-14.39c-3-3.46-7.1-5.08-12.25-4.83q-8.21.36-12.86,5.69t-4.53,15.37Z"/><path class="cls-1" d="M954.57,241A28.33,28.33,0,0,1,972,246.41q7.29,5.46,11.15,15.43t3.85,23.7q0,13.59-3.85,23.63T972,324.67a30.61,30.61,0,0,1-34.84,0Q930,319.21,926,309.17t-3.92-23.63q0-13.71,3.92-23.7t11.14-15.43A28.09,28.09,0,0,1,954.57,241Zm0,4.66q-8.09,0-12.55,10.35t-4.47,29.57q0,19.23,4.47,29.57t12.55,10.35q8.2,0,12.62-10.35t4.4-29.57q0-19.23-4.4-29.57T954.57,245.62Z"/><path class="cls-1" d="M1004.9,266.68l-4.65-17.14a26.38,26.38,0,0,1,7.22-4.6,46.57,46.57,0,0,1,9.19-2.93,46,46,0,0,1,9.67-1A39.06,39.06,0,0,1,1042,243.9a24.55,24.55,0,0,1,10.65,8.45,22.52,22.52,0,0,1,3.86,13.23,29,29,0,0,1-2.64,12,53.67,53.67,0,0,1-6.92,11.33,105.5,105.5,0,0,1-9.3,10.34q-5,4.9-9.8,9l-8.45,7.28h26.21a16.33,16.33,0,0,0,6.3-1.1,12.54,12.54,0,0,0,4.78-3.67,36.54,36.54,0,0,0,4.23-6.62h1.22l-6.86,24.25H999.51v-1.22q4.79-5,10.23-11t10.84-12.55a160.69,160.69,0,0,0,9.85-13.28,78.61,78.61,0,0,0,7.17-13.23,32.13,32.13,0,0,0,2.69-12.25q0-9.18-4.53-14.39c-3-3.46-7.1-5.08-12.24-4.83q-8.22.36-12.86,5.69t-4.53,15.37Z"/><path class="cls-1" d="M1096,241.21a35.56,35.56,0,0,1,14.45,2.2,21.07,21.07,0,0,1,9.25,6.86,16.91,16.91,0,0,1,3.24,10.29,18.73,18.73,0,0,1-2,8.63,20,20,0,0,1-5.14,6.49,18.73,18.73,0,0,1-6.92,3.68,13.86,13.86,0,0,1-7.16.18,27.57,27.57,0,0,1,8.08,1.28,25,25,0,0,1,7.84,4.11,20.57,20.57,0,0,1,5.87,7.22,23.31,23.31,0,0,1,2.21,10.53,26.78,26.78,0,0,1-3,12.68,30.9,30.9,0,0,1-8.27,9.86,40.64,40.64,0,0,1-12.06,6.49,50,50,0,0,1-29.82.61l.25-1.23A45.66,45.66,0,0,0,1087,329.2a37.06,37.06,0,0,0,11.75-5.94,29.14,29.14,0,0,0,8.09-9.37,25.26,25.26,0,0,0,2.94-12.19q0-7.09-3.37-11.57a20,20,0,0,0-8.82-6.61,32.3,32.3,0,0,0-11.94-2.14l.25-1.23a23.23,23.23,0,0,0,10.59-2.57,20.54,20.54,0,0,0,8.14-7.29,17.94,17.94,0,0,0,2.7-11.08,15,15,0,0,0-2.15-7.1,12.79,12.79,0,0,0-5.14-4.72,16,16,0,0,0-7.78-1.53q-7.47.25-11.2,5.33t-3.37,14h-1.22l-4.17-15.31a30.68,30.68,0,0,1,9.56-6A39.94,39.94,0,0,1,1096,241.21Z"/><line class="cls-2" x1="293.52" y1="0.05" x2="293.52" y2="417.73"/><line class="cls-3" x1="440.34" y1="493.34" x2="440.34" y2="534.3"/><path class="cls-1" d="M480.62,525.83c-7.68,0-12.19-4.27-12.51-10.53h3.5c.32,4.69,3.26,7.73,9,7.73,4.69,0,8.36-2.39,8.36-6.35,0-3.4-1.93-5-6.62-5.93l-4.18-.83c-4.37-.87-9-2.89-9-8.64,0-5.29,4.65-9.38,11.22-9.38s11.4,4,11.77,10.34h-3.54a7.77,7.77,0,0,0-8.18-7.54c-5.06,0-7.77,3.08-7.77,6.39,0,3.91,3.31,5.11,7,5.84l4.18.88c5.56,1.15,8.74,3.45,8.74,8.41C492.58,521.47,488.3,525.83,480.62,525.83Z"/><path class="cls-1" d="M513.59,501.14h3.17v24.23h-3V521a8.37,8.37,0,0,1-7.73,4.82c-4.92,0-8.18-2.8-8.18-8.92V501.14h3.21v15.08c0,4.92,2.44,6.81,5.84,6.81,3.87,0,6.67-3.13,6.67-7.45Z"/><path class="cls-1" d="M523.75,525.37v-33H527v33Z"/><path class="cls-1" d="M546.42,525.14a8.68,8.68,0,0,1-3.49.69c-4,0-7.08-2.07-7.08-7.31V503.85h-5.7v-2.71h5.7V494h3.22v7.17h7.58v2.71h-7.58v14c0,3.77,1.84,5.06,4.5,5.06a7,7,0,0,0,2.85-.6Z"/><path class="cls-1" d="M566.43,521a8.59,8.59,0,0,1-8.14,4.87c-5,0-8.28-2.8-8.28-7.17,0-4.74,3.77-7.22,11.13-7.22,1.47,0,2.57.09,5,.28v-2c0-4-2.16-6.43-5.83-6.43-4,0-6.44,2.43-6.49,6.39h-2.94c.14-5.38,3.86-9,9.38-9s9,3.31,9,8.92v15.77h-2.76Zm-7.68,2.53c4.5,0,7.35-2.94,7.35-7.5v-2.16c-2.06-.18-3.49-.23-4.82-.23-5.52,0-8.19,1.61-8.19,5C553.09,521.51,555.34,523.49,558.75,523.49Z"/><path class="cls-1" d="M579.16,525.37H576V501.14h3v4.55a9,9,0,0,1,8-5c5,0,8.32,3.22,8.32,9v15.72H592V510.75c0-4.64-2.12-7.26-6.07-7.26-3.77,0-6.81,3.26-6.81,7.77Z"/><path class="cls-1" d="M611.86,525.37v-33h3.45v14.48h18.76V492.36h3.45v33h-3.45V509.83H615.31v15.54Z"/><path class="cls-1" d="M642.94,513.23c0-7.26,4.83-12.5,11.5-12.5S666,506,666,513.23s-4.83,12.6-11.54,12.6S642.94,520.55,642.94,513.23Zm19.78,0c0-5.93-3.54-9.7-8.28-9.7s-8.23,3.77-8.23,9.7,3.54,9.8,8.23,9.8S662.72,519.26,662.72,513.23Z"/><path class="cls-1" d="M683.18,525.14a8.68,8.68,0,0,1-3.49.69c-4,0-7.09-2.07-7.09-7.31V503.85h-5.7v-2.71h5.7V494h3.22v7.17h7.59v2.71h-7.59v14c0,3.77,1.84,5.06,4.51,5.06a7,7,0,0,0,2.85-.6Z"/><path class="cls-1" d="M685.71,513.05c0-7.08,4.69-12.37,11.13-12.37,6.9,0,11.4,5.56,10.85,13.34H688.93c.27,5.74,3.31,9.28,8.05,9.28,4,0,6.85-2.25,7.63-6.11h3.17c-1.1,5.38-5.19,8.64-10.76,8.64C690.22,525.83,685.71,520.73,685.71,513.05Zm3.22-1.24h15.4c-.27-5.43-3.08-8.65-7.54-8.65S689.34,506.52,688.93,511.81Z"/><path class="cls-1" d="M713,525.37v-33h3.22v33Z"/><path class="cls-1" d="M721.58,530.57v-1.93c2.62-.19,4.41-1.79,4.6-3.91a2.26,2.26,0,0,1-1.06.23,2.5,2.5,0,0,1-2.53-2.53,2.61,2.61,0,0,1,2.76-2.67c2.16,0,3.22,1.66,3.22,4.1C728.57,527.26,726,530.43,721.58,530.57Z"/><path class="cls-1" d="M764.16,514.43c0,7.54-4.32,11.63-11.08,11.63-6.44,0-10.67-4-11-10.48h3.45c.27,4.74,3.26,7.4,7.54,7.4,4.55,0,7.63-2.62,7.63-8.27V492.36h3.45Z"/><path class="cls-1" d="M786.05,521a8.59,8.59,0,0,1-8.14,4.87c-5,0-8.28-2.8-8.28-7.17,0-4.74,3.77-7.22,11.13-7.22,1.47,0,2.57.09,5,.28v-2c0-4-2.16-6.43-5.83-6.43-4,0-6.44,2.43-6.49,6.39h-2.94c.14-5.38,3.86-9,9.38-9s9,3.31,9,8.92v15.77h-2.76Zm-7.68,2.53c4.5,0,7.35-2.94,7.35-7.5v-2.16c-2.06-.18-3.49-.23-4.82-.23-5.52,0-8.19,1.61-8.19,5C772.71,521.51,775,523.49,778.37,523.49Z"/><path class="cls-1" d="M795.57,525.37v-33h3.21v20l11.69-11.27h3.81L802.05,513l13.24,12.37h-4.18l-12.33-11.63v11.63Z"/><path class="cls-1" d="M833.37,521a8.59,8.59,0,0,1-8.14,4.87c-5,0-8.28-2.8-8.28-7.17,0-4.74,3.77-7.22,11.13-7.22,1.47,0,2.57.09,5,.28v-2c0-4-2.16-6.43-5.84-6.43-4,0-6.43,2.43-6.48,6.39h-2.94c.13-5.38,3.86-9,9.38-9s9,3.31,9,8.92v15.77h-2.75Zm-7.68,2.53c4.5,0,7.35-2.94,7.35-7.5v-2.16c-2.07-.18-3.49-.23-4.83-.23-5.51,0-8.18,1.61-8.18,5C820,521.51,822.28,523.49,825.69,523.49Z"/><path class="cls-1" d="M846.1,525.37h-3.22V501.14h3v5.52a10.16,10.16,0,0,1,9.25-5.89v3.36c-5.11-.18-9,3-9,8.28Z"/><path class="cls-1" d="M873,525.14a8.7,8.7,0,0,1-3.5.69c-4,0-7.08-2.07-7.08-7.31V503.85h-5.7v-2.71h5.7V494h3.22v7.17h7.59v2.71H865.6v14c0,3.77,1.84,5.06,4.51,5.06a7,7,0,0,0,2.85-.6Z"/><path class="cls-1" d="M893,521a8.59,8.59,0,0,1-8.14,4.87c-5,0-8.28-2.8-8.28-7.17,0-4.74,3.77-7.22,11.13-7.22,1.47,0,2.58.09,5,.28v-2c0-4-2.16-6.43-5.84-6.43-4,0-6.44,2.43-6.49,6.39h-2.94c.14-5.38,3.86-9,9.38-9s9,3.31,9,8.92v15.77H893Zm-7.68,2.53c4.51,0,7.36-2.94,7.36-7.5v-2.16c-2.07-.18-3.5-.23-4.83-.23-5.52,0-8.19,1.61-8.19,5C879.62,521.51,881.88,523.49,885.28,523.49Z"/><path class="cls-1" d="M900.82,530.57v-1.93c2.62-.19,4.42-1.79,4.6-3.91a2.26,2.26,0,0,1-1.06.23,2.5,2.5,0,0,1-2.53-2.53,2.61,2.61,0,0,1,2.76-2.67c2.17,0,3.22,1.66,3.22,4.1C907.81,527.26,905.24,530.43,900.82,530.57Z"/><path class="cls-1" d="M924.18,525.37v-33h3.45v33Z"/><path class="cls-1" d="M938.07,525.37h-3.22V501.14h3v4.55a9,9,0,0,1,8-5c5.06,0,8.32,3.22,8.32,9v15.72H951V510.75c0-4.64-2.12-7.26-6.07-7.26-3.78,0-6.81,3.26-6.81,7.77Z"/><path class="cls-1" d="M969.8,500.68a9.07,9.07,0,0,1,8.32,5.52V492.36h3.22v33h-3v-5.1a9.28,9.28,0,0,1-8.55,5.56c-6.53,0-10.67-5.15-10.67-12.6S963.27,500.68,969.8,500.68Zm.46,22.35c4.69,0,7.91-3.82,7.91-9.89s-3.31-9.65-7.91-9.65-7.86,3.58-7.86,9.74S965.52,523,970.26,523Z"/><path class="cls-1" d="M986.54,513.23c0-7.26,4.83-12.5,11.49-12.5s11.55,5.24,11.55,12.5-4.83,12.6-11.55,12.6S986.54,520.55,986.54,513.23Zm19.77,0c0-5.93-3.54-9.7-8.28-9.7s-8.23,3.77-8.23,9.7,3.54,9.8,8.23,9.8S1006.31,519.26,1006.31,513.23Z"/><path class="cls-1" d="M1018,525.37h-3.22V501.14h3v4.55a9,9,0,0,1,8-5c5.06,0,8.33,3.22,8.33,9v15.72h-3.22V510.75c0-4.64-2.12-7.26-6.07-7.26-3.77,0-6.81,3.26-6.81,7.77Z"/><path class="cls-1" d="M1039.05,513.05c0-7.08,4.69-12.37,11.13-12.37,6.9,0,11.4,5.56,10.85,13.34h-18.76c.28,5.74,3.31,9.28,8,9.28,4,0,6.85-2.25,7.63-6.11h3.17c-1.1,5.38-5.19,8.64-10.76,8.64C1043.56,525.83,1039.05,520.73,1039.05,513.05Zm3.22-1.24h15.41c-.28-5.43-3.09-8.65-7.55-8.65S1042.68,506.52,1042.27,511.81Z"/><path class="cls-1" d="M1074.92,525.83c-6,0-9.7-3-10.16-8h3.08c.23,3.44,2.94,5.61,7.08,5.61,3.95,0,6.34-1.52,6.34-4.28,0-2.39-1.37-3.49-5-4.23l-3.5-.69c-4.6-.87-7-3.13-7-6.62,0-4.05,3.58-6.9,8.87-6.9,5.57,0,9.24,3,9.61,7.82h-3c-.33-3.36-2.76-5.34-6.58-5.34-3.4,0-5.75,1.61-5.75,4.14s1.47,3.54,5.06,4.23l3.63.69c4.83.92,7,2.95,7,6.39C1084.48,523.07,1080.9,525.83,1074.92,525.83Z"/><path class="cls-1" d="M1091.66,498a2.42,2.42,0,1,1,2.62-2.44A2.41,2.41,0,0,1,1091.66,498Zm-1.57,27.4V501.14h3.22v24.23Z"/><path class="cls-1" d="M1115.2,521a8.59,8.59,0,0,1-8.14,4.87c-5,0-8.28-2.8-8.28-7.17,0-4.74,3.77-7.22,11.13-7.22,1.47,0,2.58.09,5,.28v-2c0-4-2.16-6.43-5.84-6.43-4,0-6.44,2.43-6.49,6.39h-2.94c.14-5.38,3.86-9,9.38-9s9,3.31,9,8.92v15.77h-2.76Zm-7.68,2.53c4.51,0,7.36-2.94,7.36-7.5v-2.16c-2.07-.18-3.5-.23-4.83-.23-5.52,0-8.18,1.61-8.18,5C1101.87,521.51,1104.12,523.49,1107.52,523.49Z"/><path class="cls-1" d="M14.06,526.61c-7.64,0-12.12-4.26-12.44-10.47H5.1c.32,4.66,3.25,7.68,8.92,7.68,4.66,0,8.32-2.38,8.32-6.31,0-3.39-1.92-4.94-6.59-5.9l-4.16-.82c-4.34-.87-8.91-2.89-8.91-8.6,0-5.26,4.61-9.33,11.15-9.33s11.34,4,11.71,10.29H22a7.72,7.72,0,0,0-8.14-7.5c-5,0-7.73,3.06-7.73,6.36,0,3.88,3.29,5.07,7,5.8l4.16.87c5.54,1.14,8.69,3.43,8.69,8.37C26,522.26,21.7,526.61,14.06,526.61Z"/><path class="cls-1" d="M30.34,513.89c0-7,4.66-12.3,11.07-12.3,6.86,0,11.34,5.54,10.79,13.26H33.54c.28,5.72,3.29,9.24,8,9.24,4,0,6.82-2.24,7.59-6.08h3.16c-1.1,5.35-5.17,8.6-10.7,8.6C34.82,526.61,30.34,521.53,30.34,513.89Zm3.2-1.23H48.86c-.27-5.4-3.06-8.6-7.5-8.6S34,507.4,33.54,512.66Z"/><path class="cls-1" d="M69,526.61a9.06,9.06,0,0,1-8.33-5.4V535H57.5V502.05h3v5.21A9.33,9.33,0,0,1,69,501.59c6.4,0,10.56,5.13,10.56,12.49S75.43,526.61,69,526.61Zm-.55-22.23c-4.48,0-7.82,3.57-7.82,9.7s3.24,9.74,7.82,9.74,7.86-3.57,7.86-9.74S73.19,504.38,68.48,504.38Z"/><path class="cls-1" d="M96.74,525.92a8.81,8.81,0,0,1-3.48.69c-4,0-7-2.06-7-7.27V504.75H80.55v-2.7h5.67v-7.13h3.2v7.13H97v2.7H89.42v13.9c0,3.75,1.83,5,4.48,5a7.06,7.06,0,0,0,2.84-.59Z"/><path class="cls-1" d="M99.25,513.89c0-7,4.67-12.3,11.07-12.3,6.86,0,11.34,5.54,10.79,13.26H102.45c.28,5.72,3.29,9.24,8,9.24,4,0,6.82-2.24,7.6-6.08h3.15c-1.1,5.35-5.17,8.6-10.7,8.6C103.73,526.61,99.25,521.53,99.25,513.89Zm3.2-1.23h15.32c-.27-5.4-3.06-8.6-7.5-8.6S102.86,507.4,102.45,512.66Z"/><path class="cls-1" d="M126.41,526.15v-24.1h3v4.53a8.69,8.69,0,0,1,7.86-5,7.42,7.42,0,0,1,7.55,5.58,9,9,0,0,1,8.32-5.58c5,0,8.09,3.3,8.09,8.92v15.64h-3.15V511.56c0-4.57-2.11-7.18-6-7.18-3.66,0-6.63,3.2-6.63,7.64v14.13h-3.21V511.56c0-4.57-2.1-7.18-6-7.18-3.7,0-6.63,3.2-6.63,7.64v14.13Z"/><path class="cls-1" d="M179.41,526.61a9.24,9.24,0,0,1-8.5-5.54v5.08h-3V493.32h3.2v13.81a8.85,8.85,0,0,1,8.28-5.54c6.45,0,10.61,5.08,10.61,12.49S185.86,526.61,179.41,526.61Zm-.5-22.23c-4.53,0-7.82,3.52-7.82,9.61s3.2,9.83,7.82,9.83,7.86-3.62,7.86-9.74S183.62,504.38,178.91,504.38Z"/><path class="cls-1" d="M193.4,513.89c0-7,4.67-12.3,11.07-12.3,6.86,0,11.34,5.54,10.79,13.26H196.6c.28,5.72,3.3,9.24,8,9.24A7.22,7.22,0,0,0,212.2,518h3.15c-1.09,5.35-5.16,8.6-10.7,8.6C197.88,526.61,193.4,521.53,193.4,513.89Zm3.2-1.23h15.32c-.27-5.4-3.06-8.6-7.5-8.6S197,507.4,196.6,512.66Z"/><path class="cls-1" d="M223.77,526.15h-3.2v-24.1h3v5.49a10.07,10.07,0,0,1,9.19-5.85V505c-5.08-.18-9,3-9,8.23Z"/><path class="cls-1" d="M263.91,526.15H245.26v-1.83l9.88-11.16c3.74-4.25,5.12-6.54,5.12-9.51a5.9,5.9,0,0,0-6.18-6,6.13,6.13,0,0,0-6.4,6.44h-3.11c0-5.39,4-9.28,9.65-9.28,5.4,0,9.37,3.61,9.37,8.6,0,3.34-1.32,5.85-6.08,11.16L250,523.31h13.94Z"/><path class="cls-1" d="M296.61,531.32V529.4c2.61-.19,4.39-1.79,4.57-3.89a2.2,2.2,0,0,1-1.05.23,2.48,2.48,0,0,1-2.51-2.52,2.59,2.59,0,0,1,2.74-2.65c2.15,0,3.2,1.65,3.2,4.07C303.56,528,301,531.18,296.61,531.32Z"/><path class="cls-1" d="M337.31,526.15H318.65v-1.83l9.88-11.16c3.75-4.25,5.12-6.54,5.12-9.51a5.89,5.89,0,0,0-6.17-6,6.13,6.13,0,0,0-6.41,6.44H318c0-5.39,4-9.28,9.65-9.28,5.4,0,9.38,3.61,9.38,8.6,0,3.34-1.33,5.85-6.08,11.16l-7.55,8.77h13.95Z"/><path class="cls-1" d="M352.81,494.78c7,0,11,5.72,11,16s-3.89,15.87-11,15.87-11-5.63-11-15.87S345.77,494.78,352.81,494.78Zm0,29c5,0,7.68-4.48,7.68-13s-2.7-13.12-7.68-13.12-7.68,4.48-7.68,13.12S347.73,523.77,352.81,523.77Z"/><path class="cls-1" d="M387.29,526.15H368.63v-1.83l9.88-11.16c3.75-4.25,5.12-6.54,5.12-9.51a5.9,5.9,0,0,0-6.18-6,6.13,6.13,0,0,0-6.4,6.44h-3.11c0-5.39,4-9.28,9.65-9.28,5.4,0,9.38,3.61,9.38,8.6,0,3.34-1.33,5.85-6.09,11.16l-7.54,8.77h14Z"/><path class="cls-1" d="M391.68,517.6h3.11c.18,3.89,3.06,6.35,7.36,6.35s7.13-2.42,7.13-6.31c0-3.7-3-6.08-7.77-6.08h-3.07v-2.65h3c3.79,0,6.44-2.42,6.44-5.9s-2.47-5.62-6-5.62a5.84,5.84,0,0,0-6.26,5.85h-3.07c.14-4.85,4.17-8.46,9.42-8.46,5.49,0,9.2,3.34,9.2,8.09,0,3.21-1.92,5.77-5.31,7.18,4.25,1.06,6.72,3.8,6.72,7.55,0,5.3-4.2,9-10.42,9S391.81,523,391.68,517.6Z"/><path class="cls-1" d="M272.33,509.19h-1.68V496.56h1.56v2.38a4.7,4.7,0,0,1,4.17-2.62c2.63,0,4.33,1.68,4.33,4.68v8.19H279v-7.62c0-2.42-1.11-3.78-3.17-3.78a3.74,3.74,0,0,0-3.54,4Z"/><path class="cls-1" d="M288.86,496.32a4.72,4.72,0,0,1,4.33,2.88V492h1.68v17.2h-1.56v-2.66a4.83,4.83,0,0,1-4.45,2.9c-3.41,0-5.56-2.69-5.56-6.57S285.45,496.32,288.86,496.32ZM289.1,508c2.44,0,4.12-2,4.12-5.15s-1.73-5-4.12-5-4.1,1.86-4.1,5.07S286.63,508,289.1,508Z"/><path class="cls-1" d="M240.33,251.8v5h1.2a4.24,4.24,0,0,1,4.24,4.24V293.9L215.7,254.34a6.46,6.46,0,0,0-5.13-2.54h-7.72v5h1.06a4.19,4.19,0,0,1,2.73.94,4,4,0,0,1,1.45,3.11l-.05,39a4.25,4.25,0,0,1-4.24,4.23h-1.2v5h16.83a5,5,0,0,0-5-5h-.35V266.62l32.29,42.48h5.38l0-52.3h.43a5,5,0,0,0,5-5Z"/><path class="cls-1" d="M49.23,304.11a4.34,4.34,0,0,1-4-2.76l-20-51H21.65L0,309.1H7l6.08-17.73H31.41l4.74,12.74H35.06a5,5,0,0,0-5,5H50.43v-5ZM29.38,285.94H15.17l6.94-19.66C24,271.47,27.88,281.9,29.38,285.94Z"/><path class="cls-1" d="M195.89,304.11a4.34,4.34,0,0,1-4-2.76l-20-51h-3.53L146.66,309.1h7l6.08-17.73h18.31l4.74,12.74h-1.09a5,5,0,0,0-5,5h20.36v-5ZM176,285.94H161.83l6.94-19.66C170.68,271.47,174.54,281.9,176,285.94Z"/><path class="cls-1" d="M91.07,287.19a16.6,16.6,0,0,0-4.18-5,32.91,32.91,0,0,0-5.62-3.63c-1.91-1-3.88-1.93-6-2.87s-4.11-2-6.33-3.22a16.66,16.66,0,0,1-4.56-3.64,7.08,7.08,0,0,1-1.6-4.77,7.83,7.83,0,0,1,2.26-5.6c1.52-1.6,3.67-2.38,6.58-2.38a11.69,11.69,0,0,1,6.91,1.9,12.53,12.53,0,0,1,4,4.62l.33.66h6.8V251.18h-1.1A5.23,5.23,0,0,0,84,253.8h0A19.63,19.63,0,0,0,78,251.4c-6.68-1.48-11.8-1-15.32.62a13.86,13.86,0,0,0-5.3,3.86,14.37,14.37,0,0,0-2.7,4.93,16.52,16.52,0,0,0-.76,4.74,14.46,14.46,0,0,0,1.6,7,16.09,16.09,0,0,0,4.14,5,31.1,31.1,0,0,0,5.5,3.53c1.92,1,3.92,2,5.93,2.85,2.24,1,4.34,2.13,6.25,3.25a16.09,16.09,0,0,1,4.53,3.77,8.09,8.09,0,0,1,1.61,5.14c0,4.62-4.72,6.71-4.93,6.8a12.57,12.57,0,0,1-5.15,1c-3.53,0-13.62-2.22-13.62-12.07v-1.2H52.57v1.2c0,11.26,8.07,18.54,20.55,18.54a24.59,24.59,0,0,0,10.47-2.05,15.7,15.7,0,0,0,6.73-5.72,15.26,15.26,0,0,0,2.33-8.33,14.91,14.91,0,0,0-1.57-7.05Z"/><path class="cls-1" d="M136.82,300.22a3.06,3.06,0,0,1-3.06,3.06h-21V281.79h8.31a3.48,3.48,0,0,1,3.48,3.48v1.2h5.86v-13h-5.86v3.3H112.74V257.62h18.82a2.05,2.05,0,0,1,2.05,2.05v2.21h4.62V256.5a4.71,4.71,0,0,0-4.7-4.7H98.11v5h5.41V309.1h37.92V298.35h-4.62Z"/><path class="cls-1" d="M38.82,327.7v2.86h.69A2.43,2.43,0,0,1,41.94,333v18.85L24.7,329.16a3.7,3.7,0,0,0-2.94-1.46H17.33v2.86h.61a2.42,2.42,0,0,1,1.57.54,2.33,2.33,0,0,1,.83,1.78l0,22.39a2.42,2.42,0,0,1-2.43,2.42h-.68v2.86h9.65A2.86,2.86,0,0,0,24,357.69h-.21V336.2l18.52,24.35h3.08v-30h.25a2.87,2.87,0,0,0,2.84-2.87Z"/><path class="cls-1" d="M143.37,327.7v2.86h.69a2.43,2.43,0,0,1,2.43,2.43v18.85l-17.24-22.68a3.7,3.7,0,0,0-3-1.46h-4.42v2.86h.6a2.4,2.4,0,0,1,1.57.54,2.27,2.27,0,0,1,.83,1.78l0,22.39a2.42,2.42,0,0,1-2.43,2.42h-.68v2.86h9.65a2.86,2.86,0,0,0-2.86-2.86h-.21V336.2l18.51,24.35h3.09v-30h.25A2.88,2.88,0,0,0,153,327.7Z"/><path class="cls-1" d="M255.69,357.74a2.51,2.51,0,0,1-2.32-1.58L241.9,326.89h-2L227.46,360.6h4L235,350.44h10.49l2.72,7.3h-.63a2.86,2.86,0,0,0-2.86,2.86h11.68v-2.86Zm-11.38-10.42h-8.15l4-11.27C241.24,339,243.45,345,244.31,347.32Z"/><path class="cls-1" d="M9.19,331.51a3.79,3.79,0,0,0-3.79-3.79H.79v2.86h.69A2.42,2.42,0,0,1,3.89,333v22.3a2.41,2.41,0,0,1-2.41,2.41H.79v2.87H12.28v-2.87H9.19Z"/><path class="cls-1" d="M220.74,331.51a3.79,3.79,0,0,0-3.79-3.79h-4.61v2.86H213a2.43,2.43,0,0,1,2.42,2.42v22.3a2.42,2.42,0,0,1-2.42,2.41h-.69v2.87h11.5v-2.87h-3.1Z"/><path class="cls-1" d="M77,331.67a17,17,0,0,0-6.07-3,28.32,28.32,0,0,0-7.6-1l-11.3.05v2.85h.69A2.42,2.42,0,0,1,55.12,333v27.58h9.41a20.88,20.88,0,0,0,7.7-1.33,16.46,16.46,0,0,0,5.61-3.62,15,15,0,0,0,3.39-5.26,17.34,17.34,0,0,0,1.12-6.17A18,18,0,0,0,81,336.88,13.75,13.75,0,0,0,77,331.67ZM76.57,344a16.09,16.09,0,0,1-.88,5.37,13.07,13.07,0,0,1-2.48,4.27,11.15,11.15,0,0,1-3.82,2.82,11.81,11.81,0,0,1-5,1h-4V331h2.4c3.61,0,6,.43,7.81,1.41a10.28,10.28,0,0,1,4.46,4.56A15.83,15.83,0,0,1,76.57,344Z"/><path class="cls-1" d="M207,348a9.31,9.31,0,0,0-2.39-2.87,18.41,18.41,0,0,0-3.22-2.09c-1.1-.56-2.23-1.1-3.44-1.65s-2.36-1.14-3.63-1.84a9.58,9.58,0,0,1-2.62-2.09,4,4,0,0,1-.92-2.73,4.49,4.49,0,0,1,1.3-3.21,4.9,4.9,0,0,1,3.77-1.37,6.75,6.75,0,0,1,4,1.09,7.17,7.17,0,0,1,2.26,2.65l.19.38h3.9v-6.92h-.63a3,3,0,0,0-2.61,1.5h0a11.09,11.09,0,0,0-3.4-1.37c-3.83-.86-6.77-.56-8.79.35a7.93,7.93,0,0,0-4.58,5,9.35,9.35,0,0,0-.44,2.72,8.3,8.3,0,0,0,.92,4,9.14,9.14,0,0,0,2.37,2.84,18.33,18.33,0,0,0,3.16,2c1.1.57,2.25,1.12,3.39,1.63s2.49,1.23,3.59,1.87a9.2,9.2,0,0,1,2.6,2.16,4.65,4.65,0,0,1,.92,2.94c0,2.65-2.7,3.85-2.83,3.91a7.26,7.26,0,0,1-3,.59c-2,0-7.81-1.27-7.81-6.92V350h-4.15v.69c0,6.46,4.63,10.63,11.78,10.63a14.13,14.13,0,0,0,6-1.17,9.13,9.13,0,0,0,3.86-3.29,8.78,8.78,0,0,0,1.33-4.77,8.49,8.49,0,0,0-.9-4Z"/><path class="cls-1" d="M178.35,355.49a1.76,1.76,0,0,1-1.76,1.75H164.54V344.92h4.77a2,2,0,0,1,2,2v.69h3.36v-7.44H171.3v1.9h-6.76v-11h10.79a1.17,1.17,0,0,1,1.17,1.17v1.27h2.65v-3.08a2.69,2.69,0,0,0-2.69-2.7H156.15v2.86h3.1v30H181v-6.17h-2.65Z"/><path class="cls-1" d="M86.85,344.15A19.39,19.39,0,0,1,88,337.39,16,16,0,0,1,91.29,332a15.48,15.48,0,0,1,5.09-3.62,17.24,17.24,0,0,1,13.28,0,15.2,15.2,0,0,1,5.07,3.62,16.44,16.44,0,0,1,3.26,5.44,20.44,20.44,0,0,1,0,13.52,16.44,16.44,0,0,1-3.26,5.44,15.2,15.2,0,0,1-5.07,3.62,17.24,17.24,0,0,1-13.28,0,15.48,15.48,0,0,1-5.09-3.62A16,16,0,0,1,88,350.91,19.39,19.39,0,0,1,86.85,344.15Zm26.62,0q0-6.5-2.73-10a9.22,9.22,0,0,0-7.72-3.53,9.13,9.13,0,0,0-7.69,3.53q-2.72,3.54-2.71,10t2.71,10a9.13,9.13,0,0,0,7.69,3.53,9.22,9.22,0,0,0,7.72-3.53Q113.47,350.64,113.47,344.15Z"/><path class="cls-1" d="M64.13,404.84v.69a2.54,2.54,0,0,1-2.54,2.53H50.67a10.83,10.83,0,0,1,2-3.07c.94-1.07,3.12-3.07,4.71-4.53.67-.61,1.25-1.14,1.6-1.48l.35-.34c1.85-1.71,6.74-6.26,6.85-11.67a9.05,9.05,0,0,0-.89-4.33,7.54,7.54,0,0,0-2.45-2.85,10.2,10.2,0,0,0-3.4-1.54,15.57,15.57,0,0,0-3.8-.47,12.88,12.88,0,0,0-4.51.73,10.81,10.81,0,0,0-3.27,1.86,5.77,5.77,0,0,0-2.09,4.46v1.5h4.38v-1.16a3.91,3.91,0,0,1,1.7-3.32,5.49,5.49,0,0,1,3-.85,6.09,6.09,0,0,1,4.71,1.64c1,1.09,1.38,2.72,1.18,4.87-.42,4.3-3.53,7.14-5.58,9l-.79.73c-1.15,1.13-2.28,2.19-3.39,3.2a29.64,29.64,0,0,0-3,3.22,14.3,14.3,0,0,0-2.21,3.72,12.54,12.54,0,0,0-.82,4.66v.69h22V404.8h-2.1Z"/><path class="cls-1" d="M120.12,404.84v.69a2.54,2.54,0,0,1-2.54,2.53H106.66a10.83,10.83,0,0,1,2-3.07c.94-1.07,3.13-3.08,4.73-4.54L115,399l.36-.34c1.84-1.71,6.74-6.26,6.85-11.67a9.05,9.05,0,0,0-.9-4.33,7.6,7.6,0,0,0-2.44-2.85,10.29,10.29,0,0,0-3.4-1.54,15.59,15.59,0,0,0-3.81-.47,12.92,12.92,0,0,0-4.51.73,10.64,10.64,0,0,0-3.26,1.86,5.77,5.77,0,0,0-2.09,4.46v1.5h4.37v-1.16a3.9,3.9,0,0,1,1.69-3.32,5.49,5.49,0,0,1,3-.85,5.21,5.21,0,0,1,5.89,6.51c-.42,4.3-3.53,7.14-5.58,9l-.79.73c-1.15,1.13-2.28,2.19-3.38,3.2a29.79,29.79,0,0,0-3,3.22,14,14,0,0,0-2.2,3.72,12.34,12.34,0,0,0-.83,4.66v.69h22V404.8h-2.1Z"/><path class="cls-1" d="M94.74,383.76a11.9,11.9,0,0,0-3.83-4.31,10.69,10.69,0,0,0-6.09-1.66,10.31,10.31,0,0,0-6,1.69,13,13,0,0,0-4,4.35,21,21,0,0,0-2.2,5.8,27.85,27.85,0,0,0-.7,6.16,34.78,34.78,0,0,0,.55,6.07,19.91,19.91,0,0,0,1.92,5.71,10.72,10.72,0,0,0,10.18,5.93,10.27,10.27,0,0,0,6-1.69,12.64,12.64,0,0,0,3.9-4.36,21.34,21.34,0,0,0,2.13-5.8,28.77,28.77,0,0,0,.67-6.1,33,33,0,0,0-.57-6.08A19.88,19.88,0,0,0,94.74,383.76Zm-3.67,12.78a39,39,0,0,1-.32,5,20.55,20.55,0,0,1-1.07,4.51,8,8,0,0,1-1.91,3.12,3.9,3.9,0,0,1-2.86,1.08,4.06,4.06,0,0,1-2.66-.88,7.39,7.39,0,0,1-1.93-2.54A17.47,17.47,0,0,1,79,403.16a30.18,30.18,0,0,1-.67-4.24c-.12-1.44-.18-2.83-.18-4.12a34.64,34.64,0,0,1,.37-5.11,20,20,0,0,1,1.17-4.53A8.5,8.5,0,0,1,81.79,382a4.16,4.16,0,0,1,2.94-1.09,3.82,3.82,0,0,1,2.92,1.24,9.6,9.6,0,0,1,2,3.6,24.77,24.77,0,0,1,1.1,5.11A48.77,48.77,0,0,1,91.07,396.54Z"/><path class="cls-1" d="M147.74,396.83a11,11,0,0,0-4.88-2.59,12.23,12.23,0,0,0,2.4-1.38,8.46,8.46,0,0,0,2.58-3,7.21,7.21,0,0,0,.8-3.24,8.59,8.59,0,0,0-1.44-5.16,8,8,0,0,0-3.79-2.84,14.18,14.18,0,0,0-4.93-.85,12,12,0,0,0-5.7,1.24,9.1,9.1,0,0,0-3.41,2.94,7,7,0,0,0-.76,1.44l-.36.93h4.59l.15-.46a4.28,4.28,0,0,1,1.63-1.91,5.19,5.19,0,0,1,3.2-1,5,5,0,0,1,3,.74,4,4,0,0,1,1.46,2,10.48,10.48,0,0,1,.46,3.24,7,7,0,0,1-.57,2.61,5.63,5.63,0,0,1-1.81,2.39,5.36,5.36,0,0,1-3.46,1h0a2.61,2.61,0,0,0-2.61,2.61v.69H137a7.65,7.65,0,0,1,4.57,1A5.36,5.36,0,0,1,143.7,400a11.12,11.12,0,0,1,.62,3.69,6.16,6.16,0,0,1-1.78,4.79,7,7,0,0,1-4.86,1.64,7.39,7.39,0,0,1-3.29-.64c-1.53-.72-2-1.59-2.14-4.06l0-.65h-4.73v.69a7.86,7.86,0,0,0,4.67,6.95A14.61,14.61,0,0,0,138,413.5a16.86,16.86,0,0,0,6-1.07,10.83,10.83,0,0,0,4.66-3.34,8.91,8.91,0,0,0,1.8-5.7A8.63,8.63,0,0,0,147.74,396.83Z"/><path class="cls-1" d="M213.43,63.71c-2.35,5.66-8.29,4.33-12.75,3.26-5.42-1.3-15.4-4.85-24.48,1.18-2.55,1.69-8.94,7.78-12.21,11a3.45,3.45,0,0,1-2.81,1c-9.88-1.18-20.36-2-31.24-2.51-8.38-.37-16.55-.5-24.41-.4a1.82,1.82,0,0,1-1.39-3c7.51-8.51,17.38-26.93,35.79-21.59,17.3,5,29.91-8.85,40.56-24.92,2.5-3.76,6.47-9.38,12.83-6.18,5.7,2.87,19.55,21.64,20.62,38.66A8.35,8.35,0,0,1,213.43,63.71Z"/><path class="cls-1" d="M156.71,85c1.36.14,2.21.83,1.28,1.83-8.33,9-31.89,22.53-59.48,15.16-25.36-6.75-34.49.89-53.25,1.44C23,104.12,24.33,95.93,28.69,93.3c16-9.66,54-12.38,100.84-10.32C138.92,83.4,148,84.09,156.71,85Z"/><path class="cls-1" d="M130,0l1.66,0Z"/><path class="cls-1" d="M177.58,207.09a110.1,110.1,0,0,0,35.75-28.67c5.41-6.61,7.9-15.64,5-23-.23-.53-.47-1.06-.74-1.59h0a13.83,13.83,0,0,0-1.28-2.06c-3.9-5.16-9.15-7.15-13.25-8.47-.19-.06-10.32-3-19.2.52a2.58,2.58,0,0,0-.1,4.74c10.31,4.77,10.49,13,8.27,19.9-5.69,17.12-25.16,26.67-29.33,27.87-3.13.9-4.25-2.62-.89-4.27a46.22,46.22,0,0,0,15.66-12.43,13.62,13.62,0,0,0-10.25-22.26A40.94,40.94,0,0,0,155,159h0c-1.86.52-3.71,1.11-5.54,1.74-17.47,6-52.27,28.12-69,21.76a1,1,0,0,1,.19-1.92c3.63-.68,6.43-4.14,2.58-7.25-7.42-6-22.83-8.09-30.07-8.76a12.33,12.33,0,0,1-6.58-2.72c-7.62-6.12-17.72-7.81-17.14-6.49l0,0c.46,1,.92,2,1.41,3a109.32,109.32,0,0,0,90.05,60.07h.16q1.35.09,2.7.15l.93,0,1.64.05c.66,0,1.31,0,2,0h.55l2.32,0h.12a108.6,108.6,0,0,0,31.17-5.35C166.81,211.71,172.05,209.62,177.58,207.09ZM58.47,174.49a3,3,0,0,1-5.13-.23,3,3,0,0,1,.14-3.18,3,3,0,0,1,5.13.22A3,3,0,0,1,58.47,174.49Z"/><path class="cls-1" d="M237.79,113.28v0a102.46,102.46,0,0,0-2.73-28.62,105.77,105.77,0,0,0-18.56-40,1,1,0,0,0-1.63,1c3.25,6.89,6.82,16.62,3.36,23.42-5,9.82-19.14,3-27.53,2.16-13.79-1.46-20.48,9.92-25.11,15.21-18.94,21.66-43.07,27.22-70,20.91-17.48-4.1-28.79-1.64-36.64-.25-23,4-32.8.31-36.8-3.23a1.71,1.71,0,0,0-2.77.79c-.07,1.73-.1,3.45-.1,5.15.43,14.12,5.84,24.34,14.77,32.37,11.73,10.54,56.82,36.55,103.33,17.83,33.26-13.39,41.33-24.61,57.93-23.59,29.57,1.82,29.14,24.37,33.67,16.54h0a108.91,108.91,0,0,0,8.64-34.56C237.71,116.65,237.78,115,237.79,113.28Z"/><path class="cls-1" d="M33.75,71.11h.12a4.5,4.5,0,0,0,3.41-2.23A84.5,84.5,0,0,1,54.09,48.32a31.22,31.22,0,0,1,21.67-7.93h.14c21.21.72,33.43-3.56,43.81-17.84,7.1-9.75,22.77-15.21,37.6-15.22a1.73,1.73,0,0,0,.48-3.39A109.54,109.54,0,0,0,133.43.1l-1.77,0L130,0A109.2,109.2,0,0,0,44.53,39.44,110.18,110.18,0,0,0,29,65,4.46,4.46,0,0,0,33.75,71.11Z"/><path class="cls-1" d="M190.15,373.56a22.09,22.09,0,1,0,22.08,22.09A22.09,22.09,0,0,0,190.15,373.56Zm0,43.06a21,21,0,1,1,21-21A21,21,0,0,1,190.15,416.62Z"/><path class="cls-1" d="M190.15,375.66a20,20,0,1,0,20,20A20,20,0,0,0,190.15,375.66ZM178.6,407.19c0-4.69,1.83-9.28,5.62-11.54-3.79-2.27-5.62-6.86-5.62-11.55h1.74v.16a16.57,16.57,0,0,0,4.51,11.39A16.53,16.53,0,0,0,180.34,407v.17Zm2.37,0V407a17.07,17.07,0,0,1,4.5-11.37,17.11,17.11,0,0,1-4.5-11.39v-.16h1.75v.2a21.08,21.08,0,0,0,3.38,11.35A21,21,0,0,0,182.72,407v.2Zm4.13,0h-1.75V407a20.74,20.74,0,0,1,3.26-11.2l.12-.14-.12-.16a20.69,20.69,0,0,1-3.26-11.19v-.2h1.75v.28a29.15,29.15,0,0,0,2.22,11.27,29,29,0,0,0-2.22,11.26Zm.63,0v-.28A28.65,28.65,0,0,1,188,395.68l0,0,0,0a28.61,28.61,0,0,1-2.22-11.22v-.28h1.76c0,.14,0,.32,0,.55a53.77,53.77,0,0,0,1.1,11,53.6,53.6,0,0,0-1.1,11c0,.24,0,.42,0,.56Zm4.11,0h-1.73v-.56a52.87,52.87,0,0,1,1.1-10.92v-.14a52.76,52.76,0,0,1-1.1-10.92v-.55h1.73Zm2.34,0h-1.74V384.1h1.74v.55a52.59,52.59,0,0,1-1.09,10.92l0,.08,0,.06a52.7,52.7,0,0,1,1.09,10.92Zm2.38,0h-1.75v-.56a53.6,53.6,0,0,0-1.1-11,53.77,53.77,0,0,0,1.1-11v-.55h1.75v.28a28.61,28.61,0,0,1-2.22,11.22l0,0,0,0a28.65,28.65,0,0,1,2.22,11.23Zm2.38,0h-1.75v-.28A29,29,0,0,0,193,395.65a29.15,29.15,0,0,0,2.22-11.27v-.28h1.75v.2a20.64,20.64,0,0,1-3.27,11.19l-.11.16.11.14a20.68,20.68,0,0,1,3.27,11.2Zm2.39,0h-1.76V407a21,21,0,0,0-3.38-11.34,21.08,21.08,0,0,0,3.38-11.35v-.2h1.76v.16a17.19,17.19,0,0,1-4.51,11.39A17.15,17.15,0,0,1,199.33,407Zm2.36,0H200V407a16.53,16.53,0,0,0-4.51-11.37A16.57,16.57,0,0,0,200,384.26v-.16h1.74c0,4.69-1.83,9.28-5.62,11.55C199.86,397.91,201.69,402.5,201.69,407.19Z"/><path class="cls-1" d="M190.15,417.17a21.53,21.53,0,1,1,21.53-21.53,21.56,21.56,0,0,1-21.53,21.53Z"/><path class="cls-4" d="M212.23,395.64a22.09,22.09,0,1,1-22.08-22.08A22.08,22.08,0,0,1,212.23,395.64Zm-22.08,21a21,21,0,1,0-21-21,21,21,0,0,0,21,21Z"/><path class="cls-5" d="M190.15,415.63a20,20,0,1,1,20-20,20,20,0,0,1-20,20Z"/><path class="cls-6" d="M184.85,395.64a16.53,16.53,0,0,1-4.51-11.38v-.16H178.6c0,4.68,1.83,9.28,5.62,11.54-3.79,2.26-5.62,6.86-5.62,11.54h1.74V407A16.56,16.56,0,0,1,184.85,395.64Z"/><path class="cls-6" d="M186.1,395.64a21,21,0,0,1-3.38-11.35v-.19H181v.16a17.08,17.08,0,0,0,4.5,11.38A17.11,17.11,0,0,0,181,407v.16h1.75V407A21.06,21.06,0,0,1,186.1,395.64Z"/><path class="cls-6" d="M187.32,395.64a29.07,29.07,0,0,1-2.22-11.26v-.28h-1.75v.19a20.7,20.7,0,0,0,3.26,11.2l.12.15-.12.15a20.74,20.74,0,0,0-3.26,11.2v.19h1.75v-.27A29.09,29.09,0,0,1,187.32,395.64Z"/><path class="cls-6" d="M188.58,395.64a53.63,53.63,0,0,1-1.1-11c0-.23,0-.41,0-.55h-1.76v.28A28.8,28.8,0,0,0,188,395.6l0,0,0,0a28.81,28.81,0,0,0-2.22,11.23v.27h1.76c0-.14,0-.31,0-.55A53.69,53.69,0,0,1,188.58,395.64Z"/><path class="cls-6" d="M188.11,384.1v.55a53.3,53.3,0,0,0,1.09,10.92l0,.07,0,.07a53.41,53.41,0,0,0-1.09,10.92v.55h1.73V384.1Z"/><path class="cls-6" d="M196.07,395.64c3.79-2.26,5.62-6.86,5.62-11.54H200v.16a16.53,16.53,0,0,1-4.51,11.38A16.56,16.56,0,0,1,200,407v.16h1.74C201.69,402.5,199.86,397.9,196.07,395.64Z"/><path class="cls-6" d="M199.33,384.26a.81.81,0,0,0,0-.16h-1.75v.19a21,21,0,0,1-3.38,11.35A21.06,21.06,0,0,1,197.57,407v.19h1.75a.71.71,0,0,0,0-.16,17.19,17.19,0,0,0-4.51-11.38A17.16,17.16,0,0,0,199.33,384.26Z"/><path class="cls-6" d="M193.56,395.64l.11-.15a20.64,20.64,0,0,0,3.27-11.2v-.19h-1.75v.28A29.07,29.07,0,0,1,193,395.64a29.09,29.09,0,0,1,2.22,11.27v.27h1.75V407a20.68,20.68,0,0,0-3.27-11.2Z"/><path class="cls-6" d="M192.32,395.64l0,0a28.61,28.61,0,0,0,2.22-11.22v-.28H192.8c0,.14,0,.32,0,.55a53.63,53.63,0,0,1-1.1,11,53.69,53.69,0,0,1,1.1,11c0,.24,0,.41,0,.55h1.76v-.27a28.63,28.63,0,0,0-2.22-11.23Z"/><path class="cls-6" d="M191.07,395.64l0-.07a52.59,52.59,0,0,0,1.09-10.92v-.55h-1.74v23.08h1.74v-.55a52.7,52.7,0,0,0-1.09-10.92Z"/><rect class="cls-7" x="333.04" y="365.58" width="788.44" height="51.47"/><path class="cls-1" d="M346.39,404.36V376h4.35v28.39Z"/><path class="cls-1" d="M360.58,404.36h-4V383.41h3.72v3.48A7.72,7.72,0,0,1,367,383c4.31,0,7.15,2.77,7.15,7.79v13.56h-4V392.14c0-3.59-1.58-5.61-4.55-5.61-2.72,0-5,2.29-5,6Z"/><path class="cls-1" d="M388.18,404.36h-4.35L376,383.41h4.3l5.82,16.36L392,383.41h4.07Z"/><path class="cls-1" d="M396.72,393.76c0-6.2,4.23-10.75,10-10.75,6.24,0,10.39,5.06,9.68,11.86H400.8c.31,4.27,2.45,6.76,6,6.76a5.47,5.47,0,0,0,5.69-4.35h4c-1,4.67-4.62,7.48-9.57,7.48C400.8,404.76,396.72,400.37,396.72,393.76Zm4.11-1.54h11.35c-.2-3.87-2.29-6.2-5.53-6.2S401.27,388.31,400.83,392.22Z"/><path class="cls-1" d="M428.47,404.76c-5.53,0-8.81-2.73-9.21-7.24h3.83c.16,2.61,2.26,4.23,5.46,4.23,2.81,0,4.67-1,4.67-3,0-1.74-1.07-2.5-3.68-3l-3.4-.63c-3.88-.75-6.05-2.73-6.05-5.89,0-3.68,3.2-6.25,8.07-6.25s8.42,2.69,8.77,7H433.1c-.24-2.53-2.1-4-4.91-4-2.53,0-4.23,1.06-4.23,2.88s1.07,2.49,3.6,3l3.56.67c4.15.75,6.13,2.57,6.13,5.57C437.25,402.22,434.05,404.76,428.47,404.76Z"/><path class="cls-1" d="M453.14,404a8,8,0,0,1-3.55.76c-3.88,0-6.57-2.1-6.57-6.73V386.81H438.4v-3.4H443V377.2h4v6.21h6.32v3.4H447v10.31c0,2.89,1.38,3.92,3.51,3.92a5.91,5.91,0,0,0,2.61-.55Z"/><path class="cls-1" d="M457.14,404.36V383.41h3.71v3.48a7.4,7.4,0,0,1,6.57-3.88,6.33,6.33,0,0,1,6.36,4.35,7.8,7.8,0,0,1,7.08-4.35c4.31,0,7.08,2.81,7.08,7.79v13.56h-4v-12.3c0-3.48-1.54-5.53-4.46-5.53-2.73,0-5,2.29-5,5.81v12h-4v-12.3c0-3.48-1.54-5.53-4.47-5.53-2.76,0-4.94,2.29-4.94,5.81v12Z"/><path class="cls-1" d="M491.77,393.76c0-6.2,4.23-10.75,10-10.75,6.24,0,10.39,5.06,9.68,11.86H495.85c.31,4.27,2.45,6.76,6,6.76a5.47,5.47,0,0,0,5.69-4.35h3.95c-1,4.67-4.62,7.48-9.56,7.48C495.85,404.76,491.77,400.37,491.77,393.76Zm4.12-1.54h11.34c-.19-3.87-2.29-6.2-5.53-6.2S496.32,388.31,495.89,392.22Z"/><path class="cls-1" d="M519.69,404.36h-4V383.41h3.72v3.48a7.73,7.73,0,0,1,6.68-3.88c4.31,0,7.16,2.77,7.16,7.79v13.56h-4V392.14c0-3.59-1.59-5.61-4.55-5.61-2.73,0-5,2.29-5,6Z"/><path class="cls-1" d="M550.29,404a8,8,0,0,1-3.56.76c-3.87,0-6.56-2.1-6.56-6.73V386.81h-4.63v-3.4h4.63V377.2h4v6.21h6.33v3.4h-6.33v10.31c0,2.89,1.39,3.92,3.52,3.92a5.91,5.91,0,0,0,2.61-.55Z"/><path class="cls-1" d="M562,404.76c-5.53,0-8.81-2.73-9.21-7.24h3.84c.15,2.61,2.25,4.23,5.45,4.23,2.81,0,4.67-1,4.67-3,0-1.74-1.07-2.5-3.68-3l-3.4-.63c-3.87-.75-6.05-2.73-6.05-5.89,0-3.68,3.2-6.25,8.07-6.25s8.42,2.69,8.77,7h-3.83c-.24-2.53-2.1-4-4.9-4-2.53,0-4.23,1.06-4.23,2.88s1.06,2.49,3.59,3l3.56.67c4.15.75,6.13,2.57,6.13,5.57C570.81,402.22,567.61,404.76,562,404.76Z"/><path class="cls-1" d="M585.32,404.36V386.81H580.7v-3.4h4.62v-1.55c0-4,2.18-6.24,6.13-6.24a7.9,7.9,0,0,1,2.93.51v3.24a5.29,5.29,0,0,0-2.06-.35c-1.9,0-3,.87-3,2.88v1.51h5.85v3.4h-5.85v17.55Z"/><path class="cls-1" d="M596.12,393.88c0-6.2,4.35-10.87,10.28-10.87s10.28,4.67,10.28,10.87-4.35,10.88-10.28,10.88S596.12,400.09,596.12,393.88Zm16.44,0c0-4.58-2.72-7.31-6.16-7.31s-6.13,2.73-6.13,7.31,2.69,7.36,6.13,7.36S612.56,398.47,612.56,393.88Z"/><path class="cls-1" d="M624.74,404.36h-4V383.41h3.72v4.42a9,9,0,0,1,8.06-4.7v4.15c-4.51-.24-7.79,1.74-7.79,6.37Z"/><path class="cls-1" d="M654.2,404.76c-6.84,0-11-3.76-11.35-9.41h4.43c.2,3.59,2.49,5.93,6.84,5.93,3.6,0,6.29-1.7,6.29-4.63,0-2.37-1.55-3.56-4.83-4.27l-4.11-.79c-4-.79-7.63-2.81-7.63-7.63s4.19-8.38,10.08-8.38,10.36,3.6,10.72,9.25h-4.43a6,6,0,0,0-6.25-5.77c-3.68,0-5.69,2.17-5.69,4.62,0,2.69,2.33,3.64,5,4.19l4.19.83c4.86,1,7.59,3.13,7.59,7.36C665,401,661.08,404.76,654.2,404.76Z"/><path class="cls-1" d="M682.43,383.41h4v20.95h-3.71V401a7.16,7.16,0,0,1-6.41,3.72c-4.23,0-7.16-2.5-7.16-7.87V383.41h4V396.1c0,3.63,1.82,5.14,4.43,5.14s4.86-2.22,4.86-5.5Z"/><path class="cls-1" d="M699.79,404.76c-5.54,0-8.82-2.73-9.22-7.24h3.84c.16,2.61,2.25,4.23,5.46,4.23,2.8,0,4.66-1,4.66-3,0-1.74-1.07-2.5-3.68-3l-3.4-.63c-3.87-.75-6.05-2.73-6.05-5.89,0-3.68,3.21-6.25,8.07-6.25,5,0,8.42,2.69,8.78,7h-3.84c-.24-2.53-2.09-4-4.9-4-2.53,0-4.23,1.06-4.23,2.88s1.07,2.49,3.6,3l3.56.67c4.15.75,6.12,2.57,6.12,5.57C708.56,402.22,705.36,404.76,699.79,404.76Z"/><path class="cls-1" d="M724.46,404a8,8,0,0,1-3.56.76c-3.87,0-6.56-2.1-6.56-6.73V386.81h-4.63v-3.4h4.63V377.2h4v6.21h6.33v3.4h-6.33v10.31c0,2.89,1.38,3.92,3.52,3.92a5.91,5.91,0,0,0,2.61-.55Z"/><path class="cls-1" d="M741.14,401.12a7.24,7.24,0,0,1-6.72,3.64c-4.35,0-7.19-2.5-7.19-6.33,0-4.11,3.28-6.25,9.53-6.25a29.82,29.82,0,0,1,3.91.24v-1.54c0-3-1.62-4.71-4.39-4.71a4.46,4.46,0,0,0-4.82,4.67h-3.64c.2-4.71,3.56-7.83,8.46-7.83,5.18,0,8.19,2.93,8.19,7.91v13.44h-3.33Zm-5.93.79c3.36,0,5.46-2.1,5.46-5.3v-1.7a27,27,0,0,0-3.68-.24c-4,0-6,1.19-6,3.64C731,400.49,732.64,401.91,735.21,401.91Z"/><path class="cls-1" d="M751.78,381.19a2.66,2.66,0,1,1,0-5.3,2.66,2.66,0,1,1,0,5.3Zm-2,23.17V383.41h4v20.95Z"/><path class="cls-1" d="M763.33,404.36h-4V383.41h3.72v3.48a7.72,7.72,0,0,1,6.68-3.88c4.31,0,7.16,2.77,7.16,7.79v13.56h-4V392.14c0-3.59-1.58-5.61-4.54-5.61-2.73,0-5,2.29-5,6Z"/><path class="cls-1" d="M794.88,401.12a7.26,7.26,0,0,1-6.72,3.64c-4.35,0-7.2-2.5-7.2-6.33,0-4.11,3.28-6.25,9.53-6.25a29.82,29.82,0,0,1,3.91.24v-1.54c0-3-1.62-4.71-4.39-4.71a4.46,4.46,0,0,0-4.82,4.67h-3.64c.2-4.71,3.56-7.83,8.46-7.83,5.18,0,8.19,2.93,8.19,7.91v13.44h-3.32Zm-5.93.79c3.36,0,5.45-2.1,5.45-5.3v-1.7a26.93,26.93,0,0,0-3.67-.24c-4,0-6,1.19-6,3.64C784.76,400.49,786.38,401.91,789,401.91Z"/><path class="cls-1" d="M814.25,404.76a7.89,7.89,0,0,1-7-4.16v3.76h-3.71V376h4v11a7.52,7.52,0,0,1,6.72-4c5.62,0,9.29,4.51,9.29,10.87S819.9,404.76,814.25,404.76Zm-.79-18.23c-3.32,0-5.93,2.57-5.93,7.27s2.53,7.4,5.93,7.4,5.93-2.65,5.93-7.32S816.9,386.53,813.46,386.53Z"/><path class="cls-1" d="M827.58,404.36V376h4v28.39Z"/><path class="cls-1" d="M835.64,393.76c0-6.2,4.23-10.75,10-10.75,6.25,0,10.4,5.06,9.69,11.86H839.71c.32,4.27,2.46,6.76,6,6.76a5.48,5.48,0,0,0,5.7-4.35h4c-1,4.67-4.63,7.48-9.57,7.48C839.71,404.76,835.64,400.37,835.64,393.76Zm4.11-1.54H851.1c-.2-3.87-2.29-6.2-5.53-6.2S840.19,388.31,839.75,392.22Z"/><path class="cls-1" d="M868.14,404.36V376h9c9,0,14.27,5.78,14.27,14.08s-5.42,14.31-14.27,14.31Zm4.35-3.76h4.43c6.52,0,10-4,10-10.55s-3.48-10.32-10-10.32h-4.43Z"/><path class="cls-1" d="M894.12,393.76c0-6.2,4.23-10.75,10-10.75,6.25,0,10.4,5.06,9.69,11.86H898.19c.32,4.27,2.45,6.76,6,6.76a5.46,5.46,0,0,0,5.69-4.35h4c-1,4.67-4.63,7.48-9.57,7.48C898.19,404.76,894.12,400.37,894.12,393.76Zm4.11-1.54h11.35c-.2-3.87-2.29-6.2-5.54-6.2S898.67,388.31,898.23,392.22Z"/><path class="cls-1" d="M926.9,404.36h-4.35l-7.87-20.95H919l5.81,16.36,5.89-16.36h4.07Z"/><path class="cls-1" d="M935.44,393.76c0-6.2,4.23-10.75,10-10.75,6.25,0,10.4,5.06,9.69,11.86H939.51c.32,4.27,2.45,6.76,6,6.76a5.47,5.47,0,0,0,5.69-4.35h4c-1,4.67-4.63,7.48-9.57,7.48C939.51,404.76,935.44,400.37,935.44,393.76Zm4.11-1.54H950.9c-.2-3.87-2.3-6.2-5.54-6.2S940,388.31,939.55,392.22Z"/><path class="cls-1" d="M959.36,404.36V376h4v28.39Z"/><path class="cls-1" d="M967.42,393.88c0-6.2,4.35-10.87,10.28-10.87S988,387.68,988,393.88s-4.35,10.88-10.28,10.88S967.42,400.09,967.42,393.88Zm16.45,0c0-4.58-2.73-7.31-6.17-7.31s-6.12,2.73-6.12,7.31,2.68,7.36,6.12,7.36S983.87,398.47,983.87,393.88Z"/><path class="cls-1" d="M1002.81,404.76a7.68,7.68,0,0,1-6.76-4V412h-4V383.41h3.71v3.83a7.91,7.91,0,0,1,7-4.23c5.57,0,9.25,4.55,9.25,10.87S1008.42,404.76,1002.81,404.76Zm-.83-18.23c-3.32,0-5.93,2.65-5.93,7.35s2.57,7.32,5.93,7.32,5.93-2.61,5.93-7.32S1005.42,386.53,1002,386.53Z"/><path class="cls-1" d="M1016.1,404.36V383.41h3.71v3.48a7.39,7.39,0,0,1,6.56-3.88,6.33,6.33,0,0,1,6.37,4.35,7.78,7.78,0,0,1,7.08-4.35c4.31,0,7.07,2.81,7.07,7.79v13.56h-4v-12.3c0-3.48-1.54-5.53-4.47-5.53-2.73,0-4.94,2.29-4.94,5.81v12h-4v-12.3c0-3.48-1.54-5.53-4.47-5.53-2.77,0-4.94,2.29-4.94,5.81v12Z"/><path class="cls-1" d="M1050.73,393.76c0-6.2,4.23-10.75,10-10.75,6.25,0,10.4,5.06,9.69,11.86H1054.8c.32,4.27,2.45,6.76,6,6.76a5.48,5.48,0,0,0,5.7-4.35h4c-1,4.67-4.63,7.48-9.57,7.48C1054.8,404.76,1050.73,400.37,1050.73,393.76Zm4.11-1.54h11.35c-.2-3.87-2.29-6.2-5.54-6.2S1055.28,388.31,1054.84,392.22Z"/><path class="cls-1" d="M1078.65,404.36h-4V383.41h3.72v3.48a7.72,7.72,0,0,1,6.68-3.88c4.31,0,7.16,2.77,7.16,7.79v13.56h-4V392.14c0-3.59-1.58-5.61-4.54-5.61-2.73,0-5,2.29-5,6Z"/><path class="cls-1" d="M1109.25,404a8.08,8.08,0,0,1-3.56.76c-3.88,0-6.56-2.1-6.56-6.73V386.81h-4.63v-3.4h4.63V377.2h4v6.21h6.32v3.4h-6.32v10.31c0,2.89,1.38,3.92,3.52,3.92a5.91,5.91,0,0,0,2.61-.55Z"/></svg>