<svg id="Layer_1" data-name="Layer 1" xmlns="http://www.w3.org/2000/svg" viewBox="0 0 282.02 36.48"><defs><style>.cls-1{fill:#fff;}</style></defs><path class="cls-1" d="M105,12.25a1,1,0,0,0,0,.64.83.83,0,0,0,.76.55h.17v.19H102v-.19h.17a1.79,1.79,0,0,0,.9-.27,2,2,0,0,0,.76-.92ZM109.05.06l.15,1.65-4.74,11.86h-1.23L108.1,2.18l.14-.29c.08-.17.17-.38.27-.62s.18-.47.25-.7a1.76,1.76,0,0,0,.12-.51Zm2.44,8.62v.65h-5.8V8.68ZM109.05.06l5.82,13.46h-2.22l-4.23-11Zm3.11,12.19h2.14a2,2,0,0,0,.77.92,1.79,1.79,0,0,0,.9.27h.15v.19h-4.86v-.19h.18a.86.86,0,0,0,.66-.31A.8.8,0,0,0,112.16,12.25Z"/><path class="cls-1" d="M122.17.09c.21,0,.46,0,.73,0s.56.06.85.11l.76.13a1.88,1.88,0,0,1,.48.14l-.08,2.26h-.17a1.83,1.83,0,0,0-.66-1.48,2.51,2.51,0,0,0-1.67-.55,2.34,2.34,0,0,0-1.71.62A1.91,1.91,0,0,0,120,2.81a1.79,1.79,0,0,0,.22.88,2.75,2.75,0,0,0,.73.86l3.7,3.09a3,3,0,0,1,.94,1.19,3.46,3.46,0,0,1,.25,1.39,3.57,3.57,0,0,1-1.12,2.67,4.11,4.11,0,0,1-2.92,1,7.22,7.22,0,0,1-1.26-.12,5.56,5.56,0,0,1-1.26-.35,2.73,2.73,0,0,1-.95-.61,3,3,0,0,1-.08-.85,5.31,5.31,0,0,1,.11-1,4.83,4.83,0,0,1,.28-.95h.17a3.17,3.17,0,0,0,.27,1.73,2.69,2.69,0,0,0,1.08,1.16,3,3,0,0,0,1.64.37,2.77,2.77,0,0,0,1.85-.69,2.19,2.19,0,0,0,.73-1.72,2.11,2.11,0,0,0-.24-1,2.54,2.54,0,0,0-.76-.82l-3.53-3a3,3,0,0,1-1-1.25,3.21,3.21,0,0,1-.27-1.44,3.65,3.65,0,0,1,.46-1.61,3.12,3.12,0,0,1,1.2-1.19A3.78,3.78,0,0,1,122.17.09ZM125,.28v.4h-1.71V.28Z"/><path class="cls-1" d="M130.85,1.74h-.06a1.14,1.14,0,0,0-.36-.84,1.19,1.19,0,0,0-.85-.35h-.23l0-.19h1.52Zm0,10.51v1.38h-1.52v-.19h.25a1.15,1.15,0,0,0,.84-.35,1.17,1.17,0,0,0,.37-.84ZM132.55.36V13.63h-1.76V.36Zm5.16,0V1H132.5V.36Zm-.85,6.41v.64H132.5V6.77Zm.78,6.2.15.66H132.5V13Zm1.23-2.68-1,3.34h-3.33l.68-.66a3.67,3.67,0,0,0,1.65-.33,3.12,3.12,0,0,0,1.1-.94,6.05,6.05,0,0,0,.74-1.41ZM137.71,0V.57L135.4.36a6.85,6.85,0,0,0,.88-.06c.31,0,.6-.08.86-.13A2.74,2.74,0,0,0,137.71,0Zm-.85,5.35V6.81h-1.33v0a1.13,1.13,0,0,0,.82-.36,1.17,1.17,0,0,0,.32-.82V5.37Zm0,2V8.82h-.19V8.57a1.17,1.17,0,0,0-.32-.82,1.12,1.12,0,0,0-.82-.34v0Zm.85-6.4V2.71h-.19v-.3a1.37,1.37,0,0,0-.39-1,1.45,1.45,0,0,0-1-.42V1Z"/><path class="cls-1" d="M143.7,12.25a1,1,0,0,0,0,.64.83.83,0,0,0,.76.55h.17v.19h-3.88v-.19h.17a1.79,1.79,0,0,0,.9-.27,2.11,2.11,0,0,0,.77-.92ZM147.78.06l.15,1.65-4.74,11.86H142l4.87-11.39.14-.29c.08-.17.17-.38.27-.62s.18-.47.25-.7a1.76,1.76,0,0,0,.12-.51Zm2.44,8.62v.65h-5.8V8.68ZM147.78.06l5.82,13.46h-2.22l-4.23-11Zm3.11,12.19H153a2,2,0,0,0,.77.92,1.79,1.79,0,0,0,.9.27h.15v.19H150v-.19h.17a.86.86,0,0,0,.66-.31A.8.8,0,0,0,150.89,12.25Z"/><path class="cls-1" d="M158.3,12.28v1.35h-1.57v-.19h.36a1.16,1.16,0,0,0,1.15-1.16ZM158.24.08l1.46,1.66,0,11.89h-1.48V2.45a17,17,0,0,0-.19-2.37Zm0,0,11.38,11.67.19,2.15L158.43,2.24Zm1.48,12.2a1.16,1.16,0,0,0,1.16,1.16h.36v.19h-1.58V12.28ZM166.79.36h1.58V1.71h0A1.19,1.19,0,0,0,168,.88a1.13,1.13,0,0,0-.83-.33h-.36Zm3,0V11.47c0,.43,0,.83,0,1.2s.08.78.15,1.23h-.17l-1.48-1.69V.36Zm1.51,0V.55H171a1.13,1.13,0,0,0-.81.33,1.16,1.16,0,0,0-.36.83h-.06V.36Z"/><path class="cls-1" d="M181.88,12.25v1.38h-2.1v-.19h.3a1.41,1.41,0,0,0,.91-.31,1.27,1.27,0,0,0,.48-.88ZM182.94.09h.18l.47,1.39-1.16,12.15H181.3Zm-.41,12.46v.1a.8.8,0,0,0,.22.55.65.65,0,0,0,.52.26h.28v.17h-1.16V12.55ZM183.12.09l5.7,11.27-.64,2.57L182.72,3Zm10.82,0,.15,1.54-5,10.31a9.55,9.55,0,0,0-.48,1.12,3.38,3.38,0,0,0-.2.87h-.19l-.42-1.34Zm-.25,12.46h.14v1.08h-1.16v-.17H193a.64.64,0,0,0,.53-.26.84.84,0,0,0,.21-.55v-.1ZM194.11.09l1.69,13.54h-2l-1-10.56,1.16-3Zm1.12,12.16h.4a1.32,1.32,0,0,0,.49.88,1.4,1.4,0,0,0,.89.31h.3v.19h-2.08Z"/><path class="cls-1" d="M201.54,12.25a1,1,0,0,0,0,.64.83.83,0,0,0,.76.55h.17v.19h-3.88v-.19h.17a1.79,1.79,0,0,0,.9-.27,2.11,2.11,0,0,0,.77-.92ZM205.62.06l.15,1.65L201,13.57H199.8l4.87-11.39.14-.29c.08-.17.17-.38.27-.62s.18-.47.25-.7a1.76,1.76,0,0,0,.12-.51Zm2.44,8.62v.65h-5.8V8.68ZM205.62.06l5.82,13.46h-2.22L205,2.48Zm3.11,12.19h2.14a2,2,0,0,0,.77.92,1.79,1.79,0,0,0,.9.27h.15v.19h-4.85v-.19H208a.86.86,0,0,0,.66-.31A.8.8,0,0,0,208.73,12.25Z"/><path class="cls-1" d="M214.15,0a3.59,3.59,0,0,0,.58.15c.26.05.54.1.86.13a7.07,7.07,0,0,0,.87.06l-2.31.21Zm11.36.34V1H214.15V.34Zm-9.79.59V1a1.39,1.39,0,0,0-1,.4,1.35,1.35,0,0,0-.39,1v.28l-.19,0V.93ZM219,12.25v1.38h-1.51v-.19h.24a1.19,1.19,0,0,0,.85-.35,1.25,1.25,0,0,0,.37-.84ZM220.71.42V13.63H219V.42Zm-.06,11.83h.06a1.17,1.17,0,0,0,.37.84,1.15,1.15,0,0,0,.84.35h.25v.19h-1.52ZM225.51,0V.55L223.19.34a6.85,6.85,0,0,0,.88-.06c.31,0,.6-.08.87-.13A3.16,3.16,0,0,0,225.51,0Zm0,.93V2.69l-.19,0V2.39a1.35,1.35,0,0,0-.39-1,1.4,1.4,0,0,0-1-.4V.93Z"/><path class="cls-1" d="M227.59,0a3.59,3.59,0,0,0,.58.15c.26.05.54.1.86.13a7.07,7.07,0,0,0,.87.06l-2.31.21ZM239,.34V1H227.59V.34Zm-9.79.59V1a1.39,1.39,0,0,0-1,.4,1.35,1.35,0,0,0-.39,1v.28l-.19,0V.93Zm3.28,11.32v1.38h-1.51v-.19h.24a1.19,1.19,0,0,0,.85-.35,1.25,1.25,0,0,0,.37-.84ZM234.15.42V13.63h-1.76V.42Zm-.06,11.83h.06a1.21,1.21,0,0,0,.37.84,1.15,1.15,0,0,0,.84.35h.25v.19h-1.52ZM239,0V.55L236.63.34a6.85,6.85,0,0,0,.88-.06c.31,0,.6-.08.87-.13A3.16,3.16,0,0,0,239,0Zm0,.93V2.69l-.19,0V2.39a1.35,1.35,0,0,0-.39-1,1.4,1.4,0,0,0-1-.4V.93Z"/><path class="cls-1" d="M243.23,1.74h-.06a1.14,1.14,0,0,0-.36-.84A1.19,1.19,0,0,0,242,.55h-.23l0-.19h1.52Zm0,10.51v1.38h-1.52v-.19H242a1.15,1.15,0,0,0,.84-.35,1.17,1.17,0,0,0,.37-.84ZM244.94.36V13.63h-1.77V.36Zm5.15,0V1h-5.21V.36Zm-.85,6.41v.64h-4.36V6.77ZM250,13l.15.66h-5.29V13Zm1.23-2.68-1,3.34h-3.34l.68-.66a3.67,3.67,0,0,0,1.65-.33,3.12,3.12,0,0,0,1.1-.94,6.05,6.05,0,0,0,.74-1.41ZM250.09,0V.57L247.78.36a6.85,6.85,0,0,0,.88-.06c.31,0,.6-.08.86-.13A2.74,2.74,0,0,0,250.09,0Zm-.85,5.35V6.81h-1.33v0a1.13,1.13,0,0,0,.82-.36,1.17,1.17,0,0,0,.32-.82V5.37Zm0,2V8.82h-.19V8.57a1.17,1.17,0,0,0-.32-.82,1.12,1.12,0,0,0-.82-.34v0Zm.85-6.4V2.71h-.19v-.3a1.37,1.37,0,0,0-.39-1,1.43,1.43,0,0,0-1-.42V1Z"/><path class="cls-1" d="M256,1.74h-.06a1.18,1.18,0,0,0-.37-.84,1.15,1.15,0,0,0-.84-.35h-.25V.36H256Zm0,10.51v1.38h-1.52v-.19h.25a1.15,1.15,0,0,0,.84-.35,1.17,1.17,0,0,0,.37-.84ZM257.66.36V13.63h-1.77V.36Zm2.35,0a5.41,5.41,0,0,1,1.59.23,3.46,3.46,0,0,1,1.26.67,3.3,3.3,0,0,1,.83,1.11,3.73,3.73,0,0,1,.3,1.55,3.79,3.79,0,0,1-.4,1.7A3.59,3.59,0,0,1,262.48,7a3,3,0,0,1-1.68.57,2.24,2.24,0,0,1,.84.58,7.63,7.63,0,0,1,.72.86s.08.13.24.36.35.51.59.84.49.67.73,1,.47.6.66.81a6.13,6.13,0,0,0,.75.77,3,3,0,0,0,.79.49,2.49,2.49,0,0,0,1,.18v.19h-1.33a5,5,0,0,1-1.61-.24,3.77,3.77,0,0,1-1.21-.64,5.16,5.16,0,0,1-.87-.88l-.32-.5c-.16-.23-.33-.51-.53-.82l-.58-.92-.49-.79c-.14-.22-.23-.36-.26-.42a4.27,4.27,0,0,0-.73-.88,1.29,1.29,0,0,0-.87-.39V7h.87a4.75,4.75,0,0,0,1.06-.17,2.41,2.41,0,0,0,1-.59,2.64,2.64,0,0,0,.69-1.29,2.46,2.46,0,0,0,.09-.47,3.85,3.85,0,0,0,0-.59,3.1,3.1,0,0,0-.66-2A2.2,2.2,0,0,0,259.7,1c-.29,0-.59,0-.91,0H257.6s0-.07-.05-.18-.08-.26-.14-.48ZM257.6,12.25h.06a1.12,1.12,0,0,0,.36.84,1.19,1.19,0,0,0,.85.35h.23v.19h-1.5Z"/><path class="cls-1" d="M273,.09c.22,0,.46,0,.74,0s.56.06.85.11l.75.13a1.86,1.86,0,0,1,.49.14l-.08,2.26h-.17a1.83,1.83,0,0,0-.66-1.48,2.51,2.51,0,0,0-1.67-.55,2.38,2.38,0,0,0-1.72.62,1.94,1.94,0,0,0-.65,1.45,1.79,1.79,0,0,0,.22.88,2.75,2.75,0,0,0,.73.86l3.69,3.09a2.79,2.79,0,0,1,.94,1.19,3.31,3.31,0,0,1,.26,1.39,3.61,3.61,0,0,1-1.12,2.67,4.11,4.11,0,0,1-2.92,1,7.22,7.22,0,0,1-1.26-.12,5.56,5.56,0,0,1-1.26-.35,2.73,2.73,0,0,1-.95-.61,3,3,0,0,1-.08-.85,5.31,5.31,0,0,1,.11-1,5.64,5.64,0,0,1,.27-.95h.18a3.08,3.08,0,0,0,.27,1.73,2.69,2.69,0,0,0,1.08,1.16,3,3,0,0,0,1.64.37,2.77,2.77,0,0,0,1.85-.69,2.19,2.19,0,0,0,.73-1.72,2,2,0,0,0-.25-1,2.34,2.34,0,0,0-.76-.82l-3.52-3a3.12,3.12,0,0,1-1-1.25,3.19,3.19,0,0,1-.26-1.44,3.64,3.64,0,0,1,.45-1.61A3.15,3.15,0,0,1,271.11.54,3.76,3.76,0,0,1,273,.09Zm2.83.19v.4h-1.71V.28Z"/><path class="cls-1" d="M281,6.48a1,1,0,0,1-.73-.29,1.06,1.06,0,0,1,0-1.46,1,1,0,0,1,.73-.29,1,1,0,0,1,.73.29,1,1,0,0,1,0,1.46A1,1,0,0,1,281,6.48Zm0,7.26a1,1,0,0,1-.73-.29,1,1,0,0,1-.29-.73,1,1,0,0,1,1-1,1,1,0,0,1,.73.29,1,1,0,0,1,.3.73,1,1,0,0,1-1,1Z"/><path class="cls-1" d="M1.52,24.29H1.46a1.12,1.12,0,0,0-.36-.84,1.17,1.17,0,0,0-.85-.36H0l0-.18H1.52Zm0,10.5v1.39H0V36H.25a1.16,1.16,0,0,0,.84-.35,1.25,1.25,0,0,0,.37-.85Zm1.7-11.88V36.18H1.46V22.91Zm5.16,0v.66H3.17v-.66Zm-.85,6.4V30H3.17v-.65Zm.77,6.2.16.67H3.17v-.67Zm1.24-2.67-1,3.34H5.18l.68-.67a3.7,3.7,0,0,0,1.65-.33,2.93,2.93,0,0,0,1.1-.94,6.37,6.37,0,0,0,.74-1.4ZM8.38,22.56v.55l-2.31-.2A7,7,0,0,0,7,22.85c.31,0,.6-.08.86-.13A2.61,2.61,0,0,0,8.38,22.56Zm-.85,5.35v1.44H6.2v0A1.1,1.1,0,0,0,7,29a1.12,1.12,0,0,0,.33-.81v-.23Zm0,2v1.44H7.34v-.25A1.13,1.13,0,0,0,7,30.3,1,1,0,0,0,6.2,30v0Zm.85-6.41v1.75H8.19V25a1.33,1.33,0,0,0-.39-1,1.37,1.37,0,0,0-1-.42v0Z"/><path class="cls-1" d="M14.24,24.29h-.06a1.12,1.12,0,0,0-.36-.84,1.16,1.16,0,0,0-.85-.36h-.23l0-.18h1.52Zm0,10.5v1.39H12.72V36H13a1.15,1.15,0,0,0,.84-.35,1.25,1.25,0,0,0,.37-.85Zm1.7-11.88V36.18H14.18V22.91Zm2.18,0a5.23,5.23,0,0,1,2.29.44,3.2,3.2,0,0,1,1.4,1.27,3.8,3.8,0,0,1,.48,1.94A3.32,3.32,0,0,1,22,28.18,3.48,3.48,0,0,1,21,29.41a3.88,3.88,0,0,1-2.88.89,3.78,3.78,0,0,1-1.55-.51V29.6a6.28,6.28,0,0,0,1.05,0,3.68,3.68,0,0,0,1-.23,2.69,2.69,0,0,0,.95-.65,2.9,2.9,0,0,0,.67-1.23,3.36,3.36,0,0,0,.09-.54,3.06,3.06,0,0,0,0-.6,3.16,3.16,0,0,0-.67-2,2.28,2.28,0,0,0-1.85-.78H15.89c-.07-.22-.13-.43-.19-.64ZM15.89,34.79h0a1.3,1.3,0,0,0,.37.85,1.19,1.19,0,0,0,.85.35h.24v.19H15.89Z"/><path class="cls-1" d="M27.07,24.29H27a1.25,1.25,0,0,0-.37-.84,1.16,1.16,0,0,0-.85-.36h-.24v-.18h1.51Zm0,10.5v1.39H25.56V36h.24a1.19,1.19,0,0,0,.85-.35,1.3,1.3,0,0,0,.37-.85Zm1.71-11.88V36.18H27V22.91Zm-.06,1.38V22.91h1.52v.18H30a1.12,1.12,0,0,0-.84.36,1.17,1.17,0,0,0-.37.84Zm0,10.5h.06a1.21,1.21,0,0,0,.37.85A1.15,1.15,0,0,0,30,36h.25v.19H28.72Z"/><path class="cls-1" d="M46.2,30.64l-.09,3.07A5.68,5.68,0,0,1,44.9,35.1a5.41,5.41,0,0,1-1.75,1,7.11,7.11,0,0,1-2.37.36,8,8,0,0,1-3.69-.86,6,6,0,0,1-2.49-2.39,7.15,7.15,0,0,1-.89-3.67,7.18,7.18,0,0,1,.88-3.63,6.1,6.1,0,0,1,2.48-2.4,8,8,0,0,1,3.8-.85,9.09,9.09,0,0,1,2.6.35,8,8,0,0,1,2,.86l.27,2.87h-.17a4.29,4.29,0,0,0-1.7-2.59,5,5,0,0,0-7.52,2.08,7.79,7.79,0,0,0-.64,3.29,7.93,7.93,0,0,0,.63,3.28A5.14,5.14,0,0,0,38.1,35a4.81,4.81,0,0,0,2.68.83,6,6,0,0,0,2.48-.5,4.21,4.21,0,0,0,1.82-1.62,7.45,7.45,0,0,0,1-3Z"/><path class="cls-1" d="M51.17,24.29h-.06a1.12,1.12,0,0,0-.36-.84,1.16,1.16,0,0,0-.85-.36h-.23l0-.18h1.52Zm0,10.5v1.39H49.65V36h.25a1.15,1.15,0,0,0,.84-.35,1.25,1.25,0,0,0,.37-.85Zm1.7-11.88V36.18H51.11V22.91Zm5.16,0v.66H52.82v-.66Zm-.85,6.4V30H52.82v-.65Zm.77,6.2.16.67H52.82v-.67Zm1.24-2.67-1,3.34H54.83l.68-.67a3.67,3.67,0,0,0,1.65-.33,2.93,2.93,0,0,0,1.1-.94,6.37,6.37,0,0,0,.74-1.4ZM58,22.56v.55l-2.31-.2a6.85,6.85,0,0,0,.88-.06c.31,0,.6-.08.86-.13A2.61,2.61,0,0,0,58,22.56Zm-.85,5.35v1.44H55.85v0a1.13,1.13,0,0,0,.82-.36,1.15,1.15,0,0,0,.32-.81v-.23Zm0,2v1.44H57v-.25a1.17,1.17,0,0,0-.32-.81,1.08,1.08,0,0,0-.82-.34v0ZM58,23.51v1.75h-.19V25a1.33,1.33,0,0,0-.39-1,1.37,1.37,0,0,0-1-.42v0Z"/><path class="cls-1" d="M63.66,34.83v1.35H62.09V36h.36a1.11,1.11,0,0,0,.81-.35,1.07,1.07,0,0,0,.34-.81ZM63.6,22.62l1.46,1.67,0,11.89H63.6V25a17,17,0,0,0-.19-2.37Zm0,0L75,34.3l.19,2.14L63.79,24.78Zm1.48,12.21A1.18,1.18,0,0,0,66.24,36h.36v.19H65V34.83Zm7.07-11.92h1.58v1.34h0a1.17,1.17,0,0,0-.35-.82,1.14,1.14,0,0,0-.83-.34h-.36Zm3,0V34a11.51,11.51,0,0,0,0,1.21c0,.37.08.78.14,1.22h-.17l-1.48-1.69V22.91Zm1.52,0v.18h-.35a1.2,1.2,0,0,0-1.17,1.16h-.06V22.91Z"/><path class="cls-1" d="M79.19,22.54a2.51,2.51,0,0,0,.58.16c.25.05.54.09.86.13a6.82,6.82,0,0,0,.87.06l-2.31.2Zm11.35.35v.64H79.19v-.64Zm-9.78.58v.06a1.38,1.38,0,0,0-1,.41,1.34,1.34,0,0,0-.39,1v.29l-.19,0V23.47ZM84,34.79v1.39H82.52V36h.25a1.15,1.15,0,0,0,.84-.35,1.21,1.21,0,0,0,.37-.85ZM85.75,23V36.18H84V23Zm-.06,11.83h.06a1.21,1.21,0,0,0,.37.85A1.15,1.15,0,0,0,87,36h.25v.19H85.69Zm4.85-12.25v.55l-2.31-.2a6.85,6.85,0,0,0,.88-.06c.31,0,.6-.08.86-.13A2.14,2.14,0,0,0,90.54,22.54Zm0,.93v1.77l-.19,0v-.29a1.34,1.34,0,0,0-.39-1,1.38,1.38,0,0,0-1-.41v-.06Z"/><path class="cls-1" d="M94.85,24.29h-.06a1.21,1.21,0,0,0-.37-.84,1.14,1.14,0,0,0-.84-.36h-.25v-.18h1.52Zm0,10.5v1.39H93.33V36h.25a1.16,1.16,0,0,0,.84-.35,1.25,1.25,0,0,0,.37-.85Zm1.7-11.88V36.18H94.79V22.91Zm2.35,0a5.53,5.53,0,0,1,1.6.22,3.48,3.48,0,0,1,1.26.68,3.14,3.14,0,0,1,.82,1.1,3.81,3.81,0,0,1,.3,1.56,4,4,0,0,1-.39,1.7,3.67,3.67,0,0,1-1.11,1.35,3,3,0,0,1-1.68.57,2.17,2.17,0,0,1,.83.59,7.58,7.58,0,0,1,.72.85l.24.36.6.84c.24.34.48.67.73,1s.46.6.65.82a6,6,0,0,0,.75.76,3.06,3.06,0,0,0,.8.5,2.4,2.4,0,0,0,1,.18v.19h-1.32a4.91,4.91,0,0,1-1.61-.24,3.84,3.84,0,0,1-1.22-.65,4.82,4.82,0,0,1-.87-.88c0-.09-.15-.25-.31-.49s-.34-.52-.53-.83-.39-.61-.58-.91-.36-.57-.49-.79L98.77,31a4.18,4.18,0,0,0-.72-.88,1.33,1.33,0,0,0-.87-.39V29.5h.27a4.12,4.12,0,0,0,.6,0,4.58,4.58,0,0,0,1-.17,2.45,2.45,0,0,0,1-.59,2.64,2.64,0,0,0,.69-1.29,2.39,2.39,0,0,0,.08-.47,2.88,2.88,0,0,0,0-.59,3,3,0,0,0-.65-2,2.18,2.18,0,0,0-1.66-.77,6.75,6.75,0,0,0-.91,0H96.5s0-.07,0-.18l-.14-.48ZM96.5,34.79h0a1.16,1.16,0,0,0,.36.85,1.21,1.21,0,0,0,.86.35H98v.19H96.5Z"/><path class="cls-1" d="M109.22,22.91V24h-.06a.89.89,0,0,0-.29-.68,1,1,0,0,0-.72-.27h-.3v-.18Zm1.7,0v8.34a5.46,5.46,0,0,0,.49,2.39,3.64,3.64,0,0,0,1.36,1.58,3.78,3.78,0,0,0,2.06.56,4.26,4.26,0,0,0,2.15-.53,3.67,3.67,0,0,0,1.42-1.5,4.8,4.8,0,0,0,.5-2.26V22.91h1v8.55a5.23,5.23,0,0,1-.64,2.61,4.39,4.39,0,0,1-1.82,1.75,5.94,5.94,0,0,1-2.78.62,6.51,6.51,0,0,1-3-.62,4.43,4.43,0,0,1-1.92-1.73,5.07,5.07,0,0,1-.66-2.62V22.91Zm1.31,0v.18h-.3a1,1,0,0,0-.71.27.87.87,0,0,0-.3.68h0V22.91Zm6.73,0V24h-.06a.86.86,0,0,0-.29-.68,1,1,0,0,0-.71-.27h-.3v-.18Zm2.29,0v.18H121a1,1,0,0,0-.71.27A.86.86,0,0,0,120,24h0V22.91Z"/><path class="cls-1" d="M125.75,34.79v1.39h-2.11V36H124a1.44,1.44,0,0,0,.91-.32,1.3,1.3,0,0,0,.47-.88Zm1.06-12.15H127l.47,1.38L126.3,36.18h-1.14Zm-.42,12.46v.09a.83.83,0,0,0,.22.56.67.67,0,0,0,.52.25h.29v.18h-1.16V35.1ZM127,22.64l5.71,11.26L132,36.48l-5.46-10.92Zm10.83,0,.15,1.54-5.05,10.31a12.05,12.05,0,0,0-.48,1.12,3.63,3.63,0,0,0-.2.87H132l-.42-1.35Zm-.25,12.46h.13v1.08h-1.16V36h.29a.66.66,0,0,0,.53-.25.87.87,0,0,0,.21-.56V35.1ZM138,22.64l1.68,13.54h-2l-1-10.56,1.16-3Zm1.11,12.15h.4a1.37,1.37,0,0,0,.5.88,1.39,1.39,0,0,0,.89.32h.3v.19h-2.09Z"/><path class="cls-1" d="M157.09,22.64a7.66,7.66,0,0,1,3.7.85,6.1,6.1,0,0,1,2.47,2.41,7.35,7.35,0,0,1,.88,3.64,7.35,7.35,0,0,1-.88,3.64,6.1,6.1,0,0,1-2.47,2.41,7.66,7.66,0,0,1-3.7.85,7.56,7.56,0,0,1-3.67-.85A6.1,6.1,0,0,1,151,33.18a7.24,7.24,0,0,1-.88-3.64A7.24,7.24,0,0,1,151,25.9a6.1,6.1,0,0,1,2.47-2.41A7.56,7.56,0,0,1,157.09,22.64Zm0,13.16a4.53,4.53,0,0,0,2.65-.78,5.14,5.14,0,0,0,1.74-2.18,8,8,0,0,0,.63-3.3,8,8,0,0,0-.63-3.3,5.14,5.14,0,0,0-1.74-2.18,4.86,4.86,0,0,0-5.28,0,5.09,5.09,0,0,0-1.75,2.18,8,8,0,0,0-.63,3.3,8,8,0,0,0,.63,3.3A5.09,5.09,0,0,0,154.46,35,4.51,4.51,0,0,0,157.09,35.8Z"/><path class="cls-1" d="M169,24.29h-.06a1.12,1.12,0,0,0-.36-.84,1.16,1.16,0,0,0-.85-.36h-.23l0-.18H169Zm0,10.5v1.39h-1.52V36h.25a1.15,1.15,0,0,0,.84-.35,1.21,1.21,0,0,0,.37-.85Zm1.71-11.88V36.18h-1.77V22.91Zm5.15,0v.66h-5.21v-.66Zm-.85,6.4V30h-4.36v-.65Zm-4.36,5.48h.06a1.21,1.21,0,0,0,.37.85,1.15,1.15,0,0,0,.84.35h.25v.19h-1.52Zm5.21-12.23v.55l-2.31-.2a6.85,6.85,0,0,0,.88-.06c.31,0,.6-.08.86-.13A2.61,2.61,0,0,0,175.85,22.56ZM175,27.91v1.44h-1.33v0a1.13,1.13,0,0,0,.82-.36,1.15,1.15,0,0,0,.32-.81v-.23Zm0,2v1.44h-.19v-.25a1.17,1.17,0,0,0-.32-.81,1.08,1.08,0,0,0-.82-.34v0Zm.85-6.41v1.56h-.19V24.8a1.17,1.17,0,0,0-.35-.88,1.19,1.19,0,0,0-.88-.35v-.06Z"/><path class="cls-1" d="M198.36,30.87V34a5.82,5.82,0,0,1-1.24,1.13,7.16,7.16,0,0,1-1.92.94,8.26,8.26,0,0,1-2.61.37,7.53,7.53,0,0,1-3.61-.87,6.1,6.1,0,0,1-2.43-2.4,7.18,7.18,0,0,1-.88-3.63,7.24,7.24,0,0,1,.88-3.64A6.06,6.06,0,0,1,189,23.49a7.48,7.48,0,0,1,3.65-.85,10.73,10.73,0,0,1,1.94.16,8.75,8.75,0,0,1,1.61.44,7.91,7.91,0,0,1,1.27.61l.26,2.87h-.17a4.45,4.45,0,0,0-1-1.93A4.24,4.24,0,0,0,195,23.66a5.77,5.77,0,0,0-2.13-.38,4.82,4.82,0,0,0-2.74.78,5,5,0,0,0-1.8,2.19,8.11,8.11,0,0,0-.63,3.33,7.9,7.9,0,0,0,.62,3.26A5.07,5.07,0,0,0,190,35a4.83,4.83,0,0,0,2.67.79,5.45,5.45,0,0,0,1.51-.21,5.82,5.82,0,0,0,1.35-.59,3.46,3.46,0,0,0,1-.93l0-3.2c0-.57-.32-.86-1-.86h-.31v-.19h4.25V30h-.29C198.65,30,198.33,30.3,198.36,30.87Z"/><path class="cls-1" d="M204,24.29h-.06a1.21,1.21,0,0,0-.37-.84,1.12,1.12,0,0,0-.84-.36h-.25v-.18H204Zm0,10.5v1.39h-1.52V36h.25a1.15,1.15,0,0,0,.84-.35,1.25,1.25,0,0,0,.37-.85Zm1.7-11.88V36.18h-1.76V22.91Zm2.35,0a5.53,5.53,0,0,1,1.6.22,3.48,3.48,0,0,1,1.26.68,3.14,3.14,0,0,1,.82,1.1,3.81,3.81,0,0,1,.31,1.56,4,4,0,0,1-.4,1.7,3.67,3.67,0,0,1-1.11,1.35,3,3,0,0,1-1.68.57,2.17,2.17,0,0,1,.83.59,7.58,7.58,0,0,1,.72.85l.24.36.6.84c.24.34.48.67.73,1s.46.6.65.82a7.74,7.74,0,0,0,.75.76,3.06,3.06,0,0,0,.8.5,2.42,2.42,0,0,0,1,.18v.19h-1.33a4.91,4.91,0,0,1-1.61-.24,3.84,3.84,0,0,1-1.22-.65,4.82,4.82,0,0,1-.87-.88c-.05-.09-.15-.25-.31-.49s-.34-.52-.53-.83-.39-.61-.58-.91l-.49-.79-.27-.43a4.18,4.18,0,0,0-.72-.88,1.31,1.31,0,0,0-.87-.39V29.5h.27a4.12,4.12,0,0,0,.6,0,4.58,4.58,0,0,0,1.05-.17,2.39,2.39,0,0,0,1-.59,2.64,2.64,0,0,0,.69-1.29A1.82,1.82,0,0,0,210,27a2.88,2.88,0,0,0,0-.59,3,3,0,0,0-.65-2,2.18,2.18,0,0,0-1.66-.77,6.75,6.75,0,0,0-.91,0h-1.19s0-.07,0-.18l-.14-.48Zm-2.4,11.88h.05a1.16,1.16,0,0,0,.36.85,1.21,1.21,0,0,0,.86.35h.22v.19h-1.49Z"/><path class="cls-1" d="M224.33,22.64a7.73,7.73,0,0,1,3.71.85,6.13,6.13,0,0,1,2.46,2.41,7.24,7.24,0,0,1,.88,3.64,7.24,7.24,0,0,1-.88,3.64A6.13,6.13,0,0,1,228,35.59a7.73,7.73,0,0,1-3.71.85,7.62,7.62,0,0,1-3.67-.85,6.07,6.07,0,0,1-2.46-2.41,7.24,7.24,0,0,1-.89-3.64,7.24,7.24,0,0,1,.89-3.64,6.07,6.07,0,0,1,2.46-2.41A7.62,7.62,0,0,1,224.33,22.64Zm0,13.16A4.51,4.51,0,0,0,227,35a5.16,5.16,0,0,0,1.75-2.18,8.2,8.2,0,0,0,.62-3.3,8.2,8.2,0,0,0-.62-3.3A5.16,5.16,0,0,0,227,24.06a4.86,4.86,0,0,0-5.28,0A5.16,5.16,0,0,0,220,26.24a8,8,0,0,0-.63,3.3,8,8,0,0,0,.63,3.3A5.16,5.16,0,0,0,221.7,35,4.53,4.53,0,0,0,224.33,35.8Z"/><path class="cls-1" d="M237.2,24.27h-2a1.55,1.55,0,0,0-.73-.9,2,2,0,0,0-.94-.28h-.15v-.18h4.74v.18h-.17a.84.84,0,0,0-.63.31A.81.81,0,0,0,237.2,24.27ZM234.72,23h2.06l3.36,10.41-.59,3Zm8.83-.42.21,1.65-3.62,10.09a10.28,10.28,0,0,0-.3,1.13,6.27,6.27,0,0,0-.12,1h-.17l-.41-1.88,4.24-12Zm0,0,4,10.52-.59,3.3-4.32-11.18Zm7.57.4-3.55,11.32c-.13.45-.22.84-.28,1.16a4.42,4.42,0,0,0-.1.94H247l-.32-1.88L250,23Zm-1.5,1.25a.93.93,0,0,0-.1-.87.77.77,0,0,0-.62-.31h-.17v-.18h3.81v.18h-.15a2.08,2.08,0,0,0-.95.28,1.5,1.5,0,0,0-.72.9Z"/><path class="cls-1" d="M254,22.54a2.51,2.51,0,0,0,.58.16c.26.05.54.09.86.13a6.94,6.94,0,0,0,.87.06l-2.31.2Zm11.35.35v.64H254v-.64Zm-9.78.58v.06a1.4,1.4,0,0,0-1,.41,1.34,1.34,0,0,0-.39,1v.29l-.19,0V23.47Zm3.28,11.32v1.39h-1.52V36h.25a1.15,1.15,0,0,0,.84-.35,1.21,1.21,0,0,0,.37-.85ZM260.56,23V36.18h-1.77V23Zm-.06,11.83h.06a1.21,1.21,0,0,0,.37.85,1.15,1.15,0,0,0,.84.35H262v.19H260.5Zm4.85-12.25v.55l-2.31-.2a6.85,6.85,0,0,0,.88-.06l.87-.13A2.16,2.16,0,0,0,265.35,22.54Zm0,.93v1.77l-.19,0v-.29a1.37,1.37,0,0,0-.38-1,1.4,1.4,0,0,0-1-.41v-.06Z"/><path class="cls-1" d="M269.64,24.29h-.06a1.17,1.17,0,0,0-.37-.84,1.12,1.12,0,0,0-.84-.36h-.25v-.18h1.52Zm0,10.5v1.39h-1.52V36h.25a1.15,1.15,0,0,0,.84-.35,1.21,1.21,0,0,0,.37-.85Zm1.7-11.88V36.18h-1.76V22.91Zm7.4,6.36v.65h-7.59v-.65Zm-7.45-5V22.91h1.51v.18h-.24a1.16,1.16,0,0,0-.85.36,1.25,1.25,0,0,0-.37.84Zm0,10.5h0a1.3,1.3,0,0,0,.37.85,1.19,1.19,0,0,0,.85.35h.24v.19h-1.51Zm7.33-10.5h-.05a1.12,1.12,0,0,0-.36-.84,1.18,1.18,0,0,0-.86-.36h-.24v-.18h1.51Zm0,10.5v1.39h-1.51V36h.24a1.21,1.21,0,0,0,.86-.35,1.16,1.16,0,0,0,.36-.85Zm1.71-11.88V36.18h-1.76V22.91Zm-.06,1.38V22.91h1.52v.18h-.25a1.14,1.14,0,0,0-.84.36,1.21,1.21,0,0,0-.37.84Zm0,10.5h.06a1.25,1.25,0,0,0,.37.85,1.16,1.16,0,0,0,.84.35h.25v.19h-1.52Z"/></svg>