<svg id="Layer_1" data-name="Layer 1" xmlns="http://www.w3.org/2000/svg" viewBox="0 0 190.54 14.33"><defs><style>.cls-1{fill:#fff;}</style></defs><path class="cls-1" d="M8.79,3.2l-3,10.93H3.63L0,.19H2.1L4.77,10.93,7.71.19H9.92L12.81,11,15.49.19h2.1L14,14.13H11.74Z"/><path class="cls-1" d="M27.16,3.2l-3,10.93H22L18.37.19h2.09l2.68,10.74L26.07.19h2.22L31.18,11,33.86.19H36L32.32,14.13H30.11Z"/><path class="cls-1" d="M45.53,3.2l-3,10.93h-2.2L36.74.19h2.09l2.68,10.74L44.44.19h2.21L49.55,11,52.23.19h2.09L50.69,14.13H48.48Z"/><path class="cls-1" d="M55.78,14.23a1.44,1.44,0,0,1-1.49-1.5,1.5,1.5,0,1,1,3,0A1.43,1.43,0,0,1,55.78,14.23Z"/><path class="cls-1" d="M68.34,10.68h-6L61,14.13H58.89L64.23.19h2.34l5.3,13.94H69.6ZM63,9H67.7L65.35,2.52Z"/><path class="cls-1" d="M78.28,14.33c-3.36,0-5.39-1.85-5.57-4.62h2.18c.09,1.76,1.22,2.91,3.35,2.91,1.77,0,3.09-.84,3.09-2.27,0-1.17-.76-1.75-2.37-2.1l-2-.39c-2-.39-3.74-1.38-3.74-3.75s2-4.11,5-4.11,5.08,1.77,5.26,4.54H81.23a2.92,2.92,0,0,0-3.06-2.83c-1.81,0-2.8,1.07-2.8,2.27S76.52,5.76,77.82,6l2.05.4c2.39.49,3.73,1.54,3.73,3.62C83.6,12.48,81.66,14.33,78.28,14.33Z"/><path class="cls-1" d="M94.9,14.13H86.07V.19h8.7V2.06H88.21V6h6V7.88h-6v4.39H94.9Z"/><path class="cls-1" d="M105.74,10.68h-6l-1.28,3.45H96.28L101.62.19H104l5.3,13.94H107ZM100.36,9h4.74l-2.35-6.43Z"/><path class="cls-1" d="M113.17,3.24V14.13h-2V.19h2.33l7.17,10.6V.19h2V14.13h-2.16Z"/><path class="cls-1" d="M133.66,14.13h-8.49V13l4.1-4.43c1.55-1.69,2.15-2.6,2.15-3.79a2.13,2.13,0,0,0-2.25-2.21A2.28,2.28,0,0,0,126.75,5h-1.93A4.15,4.15,0,0,1,129.25.81c2.45,0,4.23,1.6,4.23,3.75,0,1.5-.56,2.54-2.72,4.84l-2.64,3h5.54Z"/><path class="cls-1" d="M140.3.81c3.1,0,4.85,2.43,4.85,6.78s-1.71,6.74-4.85,6.74-4.84-2.39-4.84-6.74S137.19.81,140.3.81Zm0,11.75c1.84,0,2.83-1.71,2.83-5s-1-5-2.83-5-2.82,1.73-2.82,5S138.45,12.56,140.3,12.56Z"/><path class="cls-1" d="M155.6,14.13h-8.49V13l4.1-4.43c1.55-1.69,2.15-2.6,2.15-3.79a2.13,2.13,0,0,0-2.25-2.21A2.28,2.28,0,0,0,148.69,5h-1.93A4.15,4.15,0,0,1,151.19.81c2.45,0,4.23,1.6,4.23,3.75,0,1.5-.56,2.54-2.72,4.84l-2.64,3h5.54Z"/><path class="cls-1" d="M157.23,10.4h1.92a2.46,2.46,0,0,0,2.72,2.33c1.65,0,2.66-.89,2.66-2.31s-1.15-2.25-2.95-2.25h-1.36V6.6h1.26a2.17,2.17,0,0,0,2.45-2.14,2,2,0,0,0-2.2-2.07,2.15,2.15,0,0,0-2.29,2.19h-1.9A4,4,0,0,1,161.81.81c2.52,0,4.15,1.46,4.15,3.52a3.24,3.24,0,0,1-2.11,3,3.21,3.21,0,0,1,2.72,3.1c0,2.33-1.91,3.93-4.7,3.93S157.25,12.71,157.23,10.4Z"/><path class="cls-1" d="M169.93,14.23a1.44,1.44,0,0,1-1.5-1.5,1.5,1.5,0,1,1,3,0A1.43,1.43,0,0,1,169.93,14.23Z"/><path class="cls-1" d="M174,14.13V.19h2.13V14.13Z"/><path class="cls-1" d="M179.13,14.13V.19h4.41c4.44,0,7,2.84,7,6.91a6.66,6.66,0,0,1-7,7Zm2.13-1.84h2.18c3.2,0,4.93-2,4.93-5.19S186.66,2,183.44,2h-2.18Z"/></svg>